<svg xmlns="http://www.w3.org/2000/svg" xmlns:xlink="http://www.w3.org/1999/xlink" width="472.739" height="82.111" viewBox="0 0 472.739 82.111">
  <defs>
    <clipPath id="clip-path">
      <rect id="Rectangle_3331" data-name="Rectangle 3331" width="472.739" height="82.111" fill="#37a274"/>
    </clipPath>
  </defs>
  <g id="Group_8541" data-name="Group 8541" clip-path="url(#clip-path)">
    <path id="Path_6481" data-name="Path 6481" d="M5679.733,323.274l2.965-.462c19.593-13.986,7.316-51.829-24.894-47.494l2.161,1.548c20.463-1.561,40.173,21.153,19.768,46.409" transform="translate(-5608.694 -254.413)" fill="#f7c300"/>
    <path id="Path_6482" data-name="Path 6482" d="M5020.458,889.932a16.993,16.993,0,0,1-5.582-1.474s-8.14,3.352-10.059,5.519c0,0,.989.838.989,1.011s.117,1.677.117,1.677l1.483.115s10.579-2.919,11.885-3.814c0,0-.755-1.416,1.163-3.034" transform="translate(-5004.821 -822.024)" fill="#0091de"/>
    <path id="Path_6483" data-name="Path 6483" d="M5076.657,43.765c-.643-.048-.887.061-1.051.623a2.394,2.394,0,0,1-.413.876c-.414.5-.79,1.2-1.654.743a.756.756,0,0,0-.43-.6c-.062-.289-.549-.452-.091-.894.714-.69.611-1.317-.158-1.945-1.464-1.2-2.14-1.256-3.778-.326a6.708,6.708,0,0,0-.912.564c-.938.757-1.745,1.593-1.5,2.952a1.682,1.682,0,0,0,.31.4c.275.3.529.605-.05.886a2.588,2.588,0,0,1-.294.115c-.356.616-.658,1.35-1.518.472-.126-.126-.517-.084-.751,0a2.338,2.338,0,0,1-2.054-.269c-.179-.047-.359-.094-.539-.139h0l-1.026-.265c.013-.02.021-.039.037-.059h0c.384-.651,1.1-1.027,1.51-1.662a1.8,1.8,0,0,0,.206-.411c.021-.224.054-.449.065-.673a3.014,3.014,0,0,0-5.777-1.454c-.139.275-.1.645-.454.849-.374-.48-.686-1.027-1.3-1.24a2.492,2.492,0,0,0-3.528.343h0c-.367.063-.492.373-.677.636a3.1,3.1,0,0,0,.1,3.232,3.136,3.136,0,0,0,2.933,1.4c.217-.074.432-.146.641-.23A2.562,2.562,0,0,0,5056.256,46c.244-.234.076-.653.414-.879.173.162.351.326.526.491.234.625.922.782,1.31,1.244a.918.918,0,0,1,.077.1c-.443.078-.885.18-1.333.226-1.464.152-1.572.148-1.509,1.565v.314a1,1,0,0,1-.013.144c-.006.046-.01.091-.019.135a.857.857,0,0,1-.023.126,1.008,1.008,0,0,1-.032.119.982.982,0,0,1-.038.113,1.125,1.125,0,0,1-.13.252c-.015.022-.029.043-.045.063s-.045.054-.069.08a.8.8,0,0,1-.066.067.843.843,0,0,1-.079.068,1.424,1.424,0,0,1-.214.137,1.258,1.258,0,0,1-.129.062l-.014.006a1.413,1.413,0,0,1-.133.052c-.041.015-.082.028-.125.041a.709.709,0,0,1-.083.022h-.012q-.053.015-.11.028a9.5,9.5,0,0,0-.914.3l-1.693.751c-.413.182-.6.072-.6-.394.006-.874-.074-1.754-.006-2.622s-.253-1.25-1.121-1.254a3.84,3.84,0,0,1-2.017-.653,3.4,3.4,0,0,1-1.447-2.214c-.085-.334-.147-.747-.6-.794-.481-.048-.663.336-.819.7a2.948,2.948,0,0,1-.574.979.076.076,0,0,1-.013.015c-.123.113-.241.228-.364.341a.124.124,0,0,1-.027.01l-1.668.626h0c-.166.061-.327.123-.492.183a7.383,7.383,0,0,1-3.743-.429c-.379-.191-.826-.345-1-.742-.325-.747-.659-1.256-1.661-1.053-.537.109-.539-.544-.532-.95.028-1.623.04-1.619-1.659-1.621a13,13,0,0,1-3.586-.355,2.982,2.982,0,0,1-2.48-3.16,6.054,6.054,0,0,1,.139-1.541c.437-1.817,1.136-2.4,2.988-2.405,1.11-.006,2.218.02,3.325-.022a3.258,3.258,0,0,0,2.323-1.98c.092-.386-.177-.367-.375-.4-1.711-.256-2.988-1.55-4.651-1.906a.058.058,0,0,0,.009-.019l-.014.009a1.171,1.171,0,0,1,.632-1.785,4.347,4.347,0,0,0,1.589-1.933,7.32,7.32,0,0,1,1.53-1.863v-.006a10.413,10.413,0,0,1,2.494-.24c.938-.065,1.661-.33,1.814-1.457.134-.985.833-1.307,1.718-1.276.071,0,.145.008.216.013.159-.076.167-.224.171-.373a1.611,1.611,0,0,0-.331-.308c-.213-.165-.413-.337-.347-.642a.8.8,0,0,1,.079-.22,2,2,0,0,1-2.212-1.523,3.206,3.206,0,0,1-.084-.514,6.47,6.47,0,0,1,.634-2.722,6.036,6.036,0,0,0,.807-3.24,1.216,1.216,0,0,1,.265-.908,1.231,1.231,0,0,1,.836-.449c1.145-.236,2.292-.464,3.435-.7s1.574-1.161,1.975-2.1c.133-.308,0-.447-.322-.549-1.31-.411-1.312-.443-.592-1.558.072-.059.144-.115.214-.174a6.108,6.108,0,0,0,3.231-2.066,2.676,2.676,0,0,1,2.547-.849c1.291.191,1.544.011,2.067-1.205.646-1.487,1.4-1.708,2.78-.792a6.419,6.419,0,0,1,.8.71,23.23,23.23,0,0,1,2.238,3.175,2.932,2.932,0,0,0,2.487,1.461,2.9,2.9,0,0,1,1.992.7,8.409,8.409,0,0,0,1.963,1.262,1.569,1.569,0,0,1,1.024,2.036c-.153.5.012.679.487.616.844-.109,1.085.365,1.11,1.077.006.13.018.259.016.39-.011.847.276,1.309,1.258,1.27a5.787,5.787,0,0,1,2.913.719,2.32,2.32,0,0,1,1.353,2,17.372,17.372,0,0,0,.487,3.067c.16.669.317,1.357-.464,1.912-.586.411-.085.607.345.684l.118.059,1.827.9a2.122,2.122,0,0,1,.523,1.524c0,.616.249.807.848.894,1.54.221,1.914.616,2.226,2.118.066.316.1.638.15.955-.008.486-.02.971-.021,1.457-.009,1.374-.282,1.73-1.654,2.105-.783.213-1.583.367-2.36.6-.472.143-.853.336-.36.95,1.034,1.3.987,1.676-.177,2.774-1.021.966-.93,1.387.414,1.8.125.037.256.047.384.072a3.227,3.227,0,0,1,2.547,1.582,1.034,1.034,0,0,0,.959.582c.53-.011.611.345.658.775.249,2.4-1.5,3.167-3.721,3" transform="translate(-5025.699 0.001)" fill="#86c127"/>
    <path id="Path_6484" data-name="Path 6484" d="M5348.809,569.873a2.151,2.151,0,1,1-2.151-2.138,2.144,2.144,0,0,1,2.151,2.138" transform="translate(-5318.964 -525.283)" fill="#01458e"/>
    <path id="Path_6485" data-name="Path 6485" d="M5213.16,917.649a2.152,2.152,0,1,1-2.151-2.139,2.146,2.146,0,0,1,2.151,2.139" transform="translate(-5193.521 -847.054)" fill="#01458e"/>
    <path id="Path_6486" data-name="Path 6486" d="M5286.2,917.649a2.151,2.151,0,1,1-2.151-2.139,2.144,2.144,0,0,1,2.151,2.139" transform="translate(-5261.068 -847.053)" fill="#01458e"/>
    <path id="Path_6487" data-name="Path 6487" d="M5687.35,881.708a2.151,2.151,0,1,1-2.149-2.138,2.143,2.143,0,0,1,2.149,2.138" transform="translate(-5632.032 -813.8)" fill="#01458e"/>
    <path id="Path_6488" data-name="Path 6488" d="M5762.7,881.708a2.151,2.151,0,1,1-2.151-2.138,2.145,2.145,0,0,1,2.151,2.138" transform="translate(-5701.727 -813.8)" fill="#01458e"/>
    <path id="Path_6489" data-name="Path 6489" d="M5882.12,881.708a2.152,2.152,0,1,1-2.151-2.138,2.145,2.145,0,0,1,2.151,2.138" transform="translate(-5812.156 -813.8)" fill="#01458e"/>
    <path id="Path_6490" data-name="Path 6490" d="M5431.509,559.439a2.152,2.152,0,1,1-2.151-2.138,2.146,2.146,0,0,1,2.151,2.138" transform="translate(-5395.441 -515.628)" fill="#01458e"/>
    <path id="Path_6491" data-name="Path 6491" d="M5098.834,649.436l-4.493,1.473s6.368,8.973,1.267,10.967S5089,650.043,5089,650.043l-4.186,1.474s4.949,9.994-.5,10.556-6.431-12.29-6.431-12.29l-4.274,1.713s4.819,9.618-.5,10.6-6.062-12.655-6.062-12.655-15.306,3.359-17.747,7.8v2.514s10.595-1.105,11.467.672c0,0-5.07,7.434-17.921,3.07a16.833,16.833,0,0,1-8.837-8.437l-4.069,3.93a18.462,18.462,0,0,0,15.029,8.813c10.842.719,16.019-4.479,16.019-4.479s2.47-2.225,2.528-4.537c0,0-.581-2.4-8.808-2.138,0,0,2.531-2.37,9.884-3.757,0,0,.116,11.587,8.662,11.27a5.88,5.88,0,0,0,4.506-2.8,6.732,6.732,0,0,0,5.842,2.919,5.825,5.825,0,0,0,5.2-3s3.082,4.191,6.832,3.092,10.128-4.046,3.2-14.925" transform="translate(-5028.053 -600.875)" fill="#01458e"/>
    <path id="Path_6492" data-name="Path 6492" d="M5268.182,912.032l.653.932.547-.932Z" transform="translate(-5248.383 -843.836)" fill="#0091de"/>
    <path id="Path_6493" data-name="Path 6493" d="M5336.881,832.529l.7.563s9.81-1.864,11.534-.758c0,0-4.709,7.78-3.927,10.121s2.748,4.551,5.321,4.551,20.232-5.245,20.232-5.245,17.354-3.9,21.541-2.557c0,0-1.875-4.1-28.474.291,0,0-12.733,3.524-13.648,2.787s5.146-8.337,4.443-10.952-3.927-5-7.979-4.565a13.291,13.291,0,0,1-9.747,5.765" transform="translate(-5311.906 -764.896)" fill="#0091de"/>
    <path id="Path_6494" data-name="Path 6494" d="M5562.385,568.28l1.55.975s-3.99,1.192-2.639,1.929l2.529.369s1.613,1.734-2.42,2.8l-2.506-.541s3.421-1.3,3.531-1.69c0,0-2.965.39-3.031-.8-.5-1.43,2.987-3.034,2.987-3.034" transform="translate(-5517.226 -525.788)" fill="#01458e"/>
    <path id="Path_6495" data-name="Path 6495" d="M5690.7,100.939s.13-3.033-4.055-2.859l-3.059.03-.342,10.376h2.093v-3.944s5.844.822,5.363-3.6m-5.022,2.085V99.553s2.944-.339,2.944,1.582-2.944,1.9-2.944,1.9" transform="translate(-5632.219 -90.74)" fill="#01458e"/>
    <path id="Path_6496" data-name="Path 6496" d="M6155.009,685.961h.093l-10.53-.343V687.7h3.968s-.827,5.808,3.618,5.331c0,0,3.052.13,2.879-4.031Zm-3.046,5.005c-1.934,0-1.912-2.926-1.912-2.926h3.5s.341,2.926-1.593,2.926" transform="translate(-6058.84 -634.353)" fill="#01458e"/>
    <path id="Path_6497" data-name="Path 6497" d="M6030.485,279.888l-8.132,6.415,4.3,5.445,1.2-1-2.987-3.662,2.551-1.864,2.16,2.752,1.155-.975-2.159-2.731,2.266-2.03,2.836,3.58,1.09-1.027Z" transform="translate(-5945.819 -258.959)" fill="#01458e"/>
    <path id="Path_6498" data-name="Path 6498" d="M6127.528,473.1l-10.074,2.5,1.646,6.719,1.5-.411-1.191-4.563,3.1-.647.82,3.39,1.457-.411-.827-3.374,2.908-.915,1.092,4.425,1.421-.489Z" transform="translate(-6033.767 -437.726)" fill="#01458e"/>
    <path id="Path_6499" data-name="Path 6499" d="M5850.388,149.558l-8.52,7.773,1.539.694,2.241-2.11,3.837,2.055-.349,3.035,2.252,1.04,1-11.372Zm-.724,6.935-3.054-1.644,3.256-2.774Z" transform="translate(-5778.914 -138.375)" fill="#01458e"/>
    <path id="Path_6500" data-name="Path 6500" d="M5576.481,381.7s20.3-1.5,15.726,19l-4.253,1.213s-2.943.867.808,4.053c0,0-.677,1.43-3.795,2.752,0,0-.478-7.348-1.983-7.651a19.4,19.4,0,0,0-5.646,2.276,34.809,34.809,0,0,0,2.159,6.307s-4.65-.719-5.91-1.842c0,0-.325-6.307-1.589-6.7,0,0-5.865,1.13-5.779,3.035l2.067,5.028s-4.359-3.988-4.468-6.762l2.572.152s1.7-.152,3.357-2.752l1.24-.238a3.511,3.511,0,0,0,1.22-2.232s3.859.889,4.646-2.08c0,0,.872-2.964-1.24-2.739,0,0-1.047-1.855-2.506-2.072s-1.7-.52-1.7-.52l1.678-1.452a9.2,9.2,0,0,0-.892-2.666s3.247-.13,3.927-1.541l.365-.607Z" transform="translate(-5521.782 -353.141)" fill="#f7c300"/>
    <path id="Path_6501" data-name="Path 6501" d="M5707.78,761.7s2.733,1.849,4.593,1.532a1.648,1.648,0,0,1-1.54,1.677c-1.542.086-3.053-3.207-3.053-3.207" transform="translate(-5654.905 -704.746)" fill="#f7c300"/>
    <path id="Path_6502" data-name="Path 6502" d="M5856.171,732.313l1.278,1.792,3.081-2.08-.755-2.4Z" transform="translate(-5792.144 -675.068)" fill="#f7c300"/>
    <path id="Path_6503" data-name="Path 6503" d="M5965.373,626.055l-.988,1.937.756,1.242Z" transform="translate(-5892.211 -579.243)" fill="#f7c300"/>
    <path id="Path_6504" data-name="Path 6504" d="M8.9,322.123q-.15-.893-.281-1.74a11.38,11.38,0,0,1-.131-1.74l3.411-.688a13.25,13.25,0,0,0,.159,3.5,42.537,42.537,0,0,0,.87,4.262,11.269,11.269,0,0,0,1.7,3.742,4.2,4.2,0,0,0,2.469,1.9V332.9a6.95,6.95,0,0,1-5.5-2.531,5.715,5.715,0,0,1-3.52,2.41,5.229,5.229,0,0,1-4.606-.959,7.179,7.179,0,0,1-2.293-9.041A3.719,3.719,0,0,1,5.1,320.628a6.253,6.253,0,0,1,2.023.428A8.4,8.4,0,0,1,8.9,322.118m.712,3.685a5.191,5.191,0,0,0-1.3-2.531,3.079,3.079,0,0,0-2.724-.856,3.064,3.064,0,0,0-2.3,2.131,5.3,5.3,0,0,0,.31,3.313,4.734,4.734,0,0,0,2.247,2.578,3.709,3.709,0,0,0,2.761.447,4.3,4.3,0,0,0-.141-2.3A10.2,10.2,0,0,0,7.313,326.6Z" transform="translate(107.399 -294.18)" fill="#01458e"/>
    <path id="Path_6505" data-name="Path 6505" d="M217.6,336.191a2.056,2.056,0,0,0,1.816-1.275,4.5,4.5,0,0,0-.15-3.62,12.918,12.918,0,0,0-1.142-2.68l3.127-1.154a28.989,28.989,0,0,0,.468,3.238,7.775,7.775,0,0,0,1.685,3.983,4.328,4.328,0,0,0,2.359,1.507v1.541a6.473,6.473,0,0,1-2.293-.39,6.262,6.262,0,0,1-2.293-1.825,2.994,2.994,0,0,1-1.414,1.61,4.308,4.308,0,0,1-2.163.605Zm2.153-10.963a2.862,2.862,0,0,1-.842.037,1.2,1.2,0,0,1-.786-.279q-.73-.744,1.5-1.805a3.872,3.872,0,0,1,.5.233q.459.232.459.344-1.629.261-1.629.894,0,.242,1.46.335.561.428-.356,1.027t-1.1.447l-1.217-.242a3.048,3.048,0,0,1,.983-.353q.983-.279,1.039-.633" transform="translate(-93.443 -299.015)" fill="#01458e"/>
    <path id="Path_6506" data-name="Path 6506" d="M317.916,393.979a1.425,1.425,0,0,1,.393-.977,1.376,1.376,0,0,1,2-.009,1.276,1.276,0,0,1,.431.986,1.407,1.407,0,0,1-1.406,1.416,1.411,1.411,0,0,1-1.011-.409,1.394,1.394,0,0,1-.412-1.005m.468-4.82a2.056,2.056,0,0,0,1.816-1.275,4.5,4.5,0,0,0-.15-3.62,12.909,12.909,0,0,0-1.142-2.68l3.127-1.154a28.99,28.99,0,0,0,.468,3.238,7.776,7.776,0,0,0,1.685,3.983,4.33,4.33,0,0,0,2.359,1.507V390.7a6.468,6.468,0,0,1-2.293-.39,6.256,6.256,0,0,1-2.293-1.824,3,3,0,0,1-1.414,1.61,4.308,4.308,0,0,1-2.162.6Zm2.547,4.82a1.405,1.405,0,0,1,2.415-.986,1.275,1.275,0,0,1,.431.986,1.347,1.347,0,0,1-.422,1,1.43,1.43,0,0,1-2,0,1.347,1.347,0,0,1-.422-1" transform="translate(-186.211 -351.984)" fill="#01458e"/>
    <path id="Path_6507" data-name="Path 6507" d="M423.95,389.158a2.056,2.056,0,0,0,1.816-1.275,4.5,4.5,0,0,0-.15-3.62,12.925,12.925,0,0,0-1.142-2.68l3.127-1.154a28.969,28.969,0,0,0,.468,3.238,7.775,7.775,0,0,0,1.685,3.983,4.329,4.329,0,0,0,2.359,1.507V390.7a6.472,6.472,0,0,1-2.293-.39,6.255,6.255,0,0,1-2.293-1.823,3,3,0,0,1-1.414,1.61,4.31,4.31,0,0,1-2.162.6Zm1.536,3.406a1.474,1.474,0,0,1,.692.177,1.3,1.3,0,0,1,.533.521,1.425,1.425,0,0,1,.2.719,1.4,1.4,0,0,1-.187.688,1.419,1.419,0,0,1-2.472,0,1.4,1.4,0,0,1-.187-.688,1.48,1.48,0,0,1,.187-.719,1.237,1.237,0,0,1,.533-.521,1.528,1.528,0,0,1,.7-.177" transform="translate(-284.269 -351.983)" fill="#01458e"/>
    <path id="Path_6508" data-name="Path 6508" d="M506.432,287.994v-1.47a1.791,1.791,0,0,0,1.654-.773,4.28,4.28,0,0,0,.3-2.559,26.4,26.4,0,0,0-.908-4.384A78.183,78.183,0,0,0,504.593,271l2.678-1.582a77.393,77.393,0,0,1,2.91,10.366,16.1,16.1,0,0,1,.253,4.774,3.591,3.591,0,0,1-1.367,2.429,3.358,3.358,0,0,1-2.639,1" transform="translate(-358.848 -249.272)" fill="#01458e"/>
    <path id="Path_6509" data-name="Path 6509" d="M593.733,286.494a43.122,43.122,0,0,1-2.911-8.6q-1.077-4.671-1.844-9.473l2.415.707a20.4,20.4,0,0,0,.59,3.276q.571,2.456,1.4,5.324t1.769,5.509a16.493,16.493,0,0,0,1.769,3.8Z" transform="translate(-436.882 -248.351)" fill="#01458e"/>
    <path id="Path_6510" data-name="Path 6510" d="M826.815,322.123q-.15-.893-.281-1.74a11.362,11.362,0,0,1-.131-1.74l3.41-.688a13.247,13.247,0,0,0,.159,3.5,42.524,42.524,0,0,0,.87,4.262,11.272,11.272,0,0,0,1.7,3.742,4.2,4.2,0,0,0,2.469,1.9V332.9a6.951,6.951,0,0,1-5.5-2.531,5.715,5.715,0,0,1-3.52,2.41,5.229,5.229,0,0,1-4.606-.959,7.179,7.179,0,0,1-2.293-9.041,3.719,3.719,0,0,1,3.927-2.149,6.252,6.252,0,0,1,2.022.428,8.393,8.393,0,0,1,1.779,1.061m.712,3.685a5.193,5.193,0,0,0-1.3-2.531,2.987,2.987,0,0,0-5.028,1.275,5.3,5.3,0,0,0,.31,3.313,4.734,4.734,0,0,0,2.247,2.578,3.709,3.709,0,0,0,2.761.447,4.3,4.3,0,0,0-.141-2.3,10.19,10.19,0,0,0-1.158-1.976Z" transform="translate(-648.993 -294.18)" fill="#01458e"/>
    <path id="Path_6511" data-name="Path 6511" d="M1031.781,389.833a1.427,1.427,0,0,1,.393-.977,1.32,1.32,0,0,1,1.034-.438,1.306,1.306,0,0,1,.974.428,1.275,1.275,0,0,1,.431.986,1.407,1.407,0,0,1-1.405,1.416,1.412,1.412,0,0,1-1.011-.41,1.4,1.4,0,0,1-.412-1m.207-3.276v-1.541a3.456,3.456,0,0,0,2.7-1.209,2.919,2.919,0,0,0,.431-2.307,8.23,8.23,0,0,0-1.033-2.568,10.312,10.312,0,0,0-1.5-2.01l3.108-.968a8.027,8.027,0,0,1,2.284,6.719q-.45,3.891-5.995,3.89m2.808,3.276a1.405,1.405,0,0,1,2.415-.986,1.276,1.276,0,0,1,.431.986,1.349,1.349,0,0,1-.422,1,1.43,1.43,0,0,1-2,0,1.347,1.347,0,0,1-.42-1" transform="translate(-846.38 -347.838)" fill="#01458e"/>
    <path id="Path_6512" data-name="Path 6512" d="M1127.281,269.866l2.79-1.694a22.534,22.534,0,0,0-.113,4.02,35.426,35.426,0,0,0,.581,4.857,21.9,21.9,0,0,0,1.344,4.541,6.628,6.628,0,0,0,2.1,2.912,4.026,4.026,0,0,0,2.273.865v1.47a12.928,12.928,0,0,1-1.329-.112,4.964,4.964,0,0,1-1.964-.735,9.652,9.652,0,0,1-2.462-2.662,15.149,15.149,0,0,1-2.19-5.017,32.263,32.263,0,0,1-.909-4.579,35.966,35.966,0,0,1-.113-3.871" transform="translate(-934.682 -248.12)" fill="#01458e"/>
    <path id="Path_6513" data-name="Path 6513" d="M1257.572,379.876a5.11,5.11,0,0,1-2.977-.773,5.606,5.606,0,0,1-1.741-1.945,2.835,2.835,0,0,1-.787,2.029q-.8.875-2.911.6t-3.721-3.407q-1.757,3.7-4.569,3.5v-1.507h.168a2.743,2.743,0,0,0,.768-.233,3.133,3.133,0,0,0,1.255-1.4,13.274,13.274,0,0,0,1.216-3.35,8.631,8.631,0,0,1,1.638-3.5,3.916,3.916,0,0,1,3.492-1.144,6.373,6.373,0,0,1,2.865,3.35,27.972,27.972,0,0,0,2.274,4.212,4.446,4.446,0,0,0,3.024,2.019Zm-9.4-9.6q-1.18.279-1.8,3.574l1.179-.688a11.038,11.038,0,0,0,1.741,4.086,3.155,3.155,0,0,0,1.629,1.2,5.5,5.5,0,0,0-.009-4.541,6.922,6.922,0,0,0-2.743-3.63" transform="translate(-1039.738 -341.155)" fill="#01458e"/>
    <path id="Path_6514" data-name="Path 6514" d="M1441.656,286.217a5.582,5.582,0,0,0,1.769-.289,13.346,13.346,0,0,0,1.751-.725,14.519,14.519,0,0,0,1.667-.968,4.51,4.51,0,0,0,1.048-.884,46,46,0,0,1-4.428-1.684,11.061,11.061,0,0,1-2.032-1.256,3.392,3.392,0,0,1-1.179-1.527,6.636,6.636,0,0,1,.861-1.814q.749-1.233,1.344-1.349a6.164,6.164,0,0,0,2.012,2.848,12.87,12.87,0,0,0,3.257,1.952,14.85,14.85,0,0,0,3.585,1.006,8.961,8.961,0,0,0,3,.018l-.861,2.605a5.277,5.277,0,0,0-1.891-.167,8.507,8.507,0,0,0-1.8.39,9.546,9.546,0,0,0,3.41,1.628,6.64,6.64,0,0,0,3.651.1,8.878,8.878,0,0,0,.094-3.7,28.681,28.681,0,0,0-1.04-4.253,83.4,83.4,0,0,0-3.307-7.771l2.752-1.209q1.292,3.109,2.443,6.756a34.5,34.5,0,0,1,1.47,6.607,4.5,4.5,0,0,1-.983,3.657,5.22,5.22,0,0,1-3.052,1.6,9.136,9.136,0,0,1-7.5-2.392q-1.55.837-3.23,1.6a7.127,7.127,0,0,1-2.256.763l-.561.019Z" transform="translate(-1224.118 -249.042)" fill="#01458e"/>
    <path id="Path_6515" data-name="Path 6515" d="M1824.445,322.123q-.15-.893-.281-1.74a11.332,11.332,0,0,1-.131-1.74l3.411-.688a13.23,13.23,0,0,0,.159,3.5,42.53,42.53,0,0,0,.871,4.262,11.284,11.284,0,0,0,1.7,3.742,4.2,4.2,0,0,0,2.464,1.9V332.9a6.951,6.951,0,0,1-5.5-2.531,5.715,5.715,0,0,1-3.521,2.41,5.229,5.229,0,0,1-4.606-.959,7.179,7.179,0,0,1-2.293-9.041,3.719,3.719,0,0,1,3.927-2.149,6.248,6.248,0,0,1,2.021.428,8.39,8.39,0,0,1,1.778,1.061m.711,3.685a5.191,5.191,0,0,0-1.3-2.531,2.987,2.987,0,0,0-5.028,1.275,5.306,5.306,0,0,0,.31,3.313,4.735,4.735,0,0,0,2.247,2.578,3.709,3.709,0,0,0,2.762.447,4.3,4.3,0,0,0-.141-2.3,10.191,10.191,0,0,0-1.151-1.982Z" transform="translate(-1571.575 -294.18)" fill="#01458e"/>
    <path id="Path_6516" data-name="Path 6516" d="M2029.41,389.833a1.425,1.425,0,0,1,.394-.977,1.376,1.376,0,0,1,2-.009,1.276,1.276,0,0,1,.431.986,1.408,1.408,0,0,1-1.405,1.416,1.411,1.411,0,0,1-1.011-.409,1.394,1.394,0,0,1-.412-1.005m.207-3.276v-1.541a3.456,3.456,0,0,0,2.7-1.209,2.917,2.917,0,0,0,.431-2.307,8.233,8.233,0,0,0-1.033-2.568,10.337,10.337,0,0,0-1.5-2.01l3.108-.968a8.026,8.026,0,0,1,2.284,6.719q-.449,3.891-5.994,3.89m2.808,3.276a1.405,1.405,0,0,1,2.415-.986,1.276,1.276,0,0,1,.43.986,1.347,1.347,0,0,1-.42,1,1.43,1.43,0,0,1-2,0,1.349,1.349,0,0,1-.42-1" transform="translate(-1768.966 -347.838)" fill="#01458e"/>
    <path id="Path_6517" data-name="Path 6517" d="M2131.806,392.619a2.415,2.415,0,0,1-1.321-.075,4.759,4.759,0,0,1-1.357-.726,5.654,5.654,0,0,1-2.8,3.713,9.076,9.076,0,0,1-5.813,1.336q1.853-.968,3.67-1.926a5.971,5.971,0,0,0,2.715-3.043v-.15a.094.094,0,0,0-.121.018.213.213,0,0,1-.14.056,3.161,3.161,0,0,1-2.163.214,3.651,3.651,0,0,1-1.686-1.052,5.443,5.443,0,0,1-1.094-1.833A6.181,6.181,0,0,1,2121.3,387a7.166,7.166,0,0,1,.871-2.857,3.2,3.2,0,0,1,2.443-1.628,3.425,3.425,0,0,1,2.612.745,5.435,5.435,0,0,1,1.46,2.131,16.241,16.241,0,0,1,.8,3.7,2.3,2.3,0,0,0,1.095,1.554,3.247,3.247,0,0,0,1.227.438Zm-4.738-6.7a2.5,2.5,0,0,0-.758-1.479,1.658,1.658,0,0,0-1.507-.624,3.082,3.082,0,0,0-1.273,1.665,4.745,4.745,0,0,0-.216,2.14,3.993,3.993,0,0,0,.76,1.9,2.218,2.218,0,0,0,1.647.925,4.089,4.089,0,0,0,.384-2.224,7.834,7.834,0,0,0-.572-2.055Z" transform="translate(-1853.214 -353.898)" fill="#01458e"/>
    <path id="Path_6518" data-name="Path 6518" d="M2264.88,386.558v-1.541q2-.186,2.323-1.209a4.624,4.624,0,0,0,.056-2.307,9.7,9.7,0,0,0-.937-2.568,8.193,8.193,0,0,0-1.4-2.011l3.109-.968a8.289,8.289,0,0,1,2.088,6.728q-.441,3.88-5.233,3.88m1.8,1.862a1.474,1.474,0,0,1,.692.177,1.3,1.3,0,0,1,.533.521,1.429,1.429,0,0,1,.2.719,1.423,1.423,0,0,1-2.845,0,1.478,1.478,0,0,1,.187-.719,1.229,1.229,0,0,1,.535-.521,1.524,1.524,0,0,1,.7-.177" transform="translate(-1986.722 -347.838)" fill="#01458e"/>
    <path id="Path_6519" data-name="Path 6519" d="M2326.049,344.732a4.014,4.014,0,0,1,2.274-.447,1.919,1.919,0,0,1,1.7,1.573,23.2,23.2,0,0,0,1.059,2.811,2.021,2.021,0,0,0,1.938,1.336v1.541a3.519,3.519,0,0,1-2.678-.949,5.361,5.361,0,0,1-1.255-2.075q-.355-1.13-.552-1.746a.929.929,0,0,0-.871-.688q-.673-.065-1.254.856a22.365,22.365,0,0,0-1.358,2.653,33.576,33.576,0,0,1-1.778,3.416,11.222,11.222,0,0,1-2.865,3.117,13.27,13.27,0,0,1-4.8,2.2q-.225-.3,1.628-2.14a28.47,28.47,0,0,0,3.514-4.3q1.654-2.457,2.968-4.532a7.556,7.556,0,0,1,2.33-2.624m-3.117-5.2a1.429,1.429,0,0,1,.392-.977,1.375,1.375,0,0,1,2-.009,1.272,1.272,0,0,1,.43.986,1.407,1.407,0,0,1-1.405,1.416,1.412,1.412,0,0,1-1.011-.409,1.393,1.393,0,0,1-.412-1.005m3.015,0a1.405,1.405,0,0,1,2.415-.986,1.275,1.275,0,0,1,.431.986,1.344,1.344,0,0,1-.422,1,1.429,1.429,0,0,1-2,0,1.347,1.347,0,0,1-.422-1" transform="translate(-2033.612 -312.833)" fill="#01458e"/>
    <path id="Path_6520" data-name="Path 6520" d="M2520.61,287.994v-1.47a1.793,1.793,0,0,0,1.654-.773,4.293,4.293,0,0,0,.3-2.559,26.382,26.382,0,0,0-.909-4.384,78.214,78.214,0,0,0-2.884-7.808l2.678-1.582a77.41,77.41,0,0,1,2.912,10.367,16.1,16.1,0,0,1,.253,4.774,3.6,3.6,0,0,1-1.367,2.429,3.357,3.357,0,0,1-2.64,1" transform="translate(-2221.513 -249.272)" fill="#01458e"/>
    <path id="Path_6521" data-name="Path 6521" d="M2607.9,286.494a43.149,43.149,0,0,1-2.911-8.6q-1.077-4.671-1.845-9.473l2.416.707a20.383,20.383,0,0,0,.59,3.276q.571,2.456,1.395,5.324t1.769,5.509a16.486,16.486,0,0,0,1.769,3.8Z" transform="translate(-2299.544 -248.351)" fill="#01458e"/>
    <path id="Path_6522" data-name="Path 6522" d="M2844.9,354.3q.356,1.657-1.534,4.038a5.318,5.318,0,0,1-5.038,2.047,5.729,5.729,0,0,1-4.728-2.969,6.489,6.489,0,0,1-.122-6.114l3.97-.874a8.67,8.67,0,0,0-1.273,4.671,3.489,3.489,0,0,0,1.871,3.2,2.573,2.573,0,0,0,3.128-.242,4.514,4.514,0,0,0,1.582-2.848,7.254,7.254,0,0,0-.477-3.574,11.928,11.928,0,0,0-1.479-2.922l3.22-.968a25.406,25.406,0,0,0,1.1,4.057q1.591,2.923,3.464,3.034a2.072,2.072,0,0,0,1.7-1.266,4.518,4.518,0,0,0-.15-3.63,12.883,12.883,0,0,0-1.143-2.68l3.127-1.154a28.963,28.963,0,0,0,.467,3.238,7.784,7.784,0,0,0,1.684,3.983,4.332,4.332,0,0,0,2.36,1.507v1.541a6.475,6.475,0,0,1-2.294-.39,6.259,6.259,0,0,1-2.293-1.825,3.022,3.022,0,0,1-1.423,1.619,4.238,4.238,0,0,1-1.963.6,3.569,3.569,0,0,1-2.256-.6,4.978,4.978,0,0,1-1.508-1.489m-5.617-9.362a1.744,1.744,0,0,1-.431,1.172,1.345,1.345,0,0,1-1.066.5,1.539,1.539,0,0,1-1.172-.514,1.726,1.726,0,0,1-.477-1.219,1.451,1.451,0,0,1,.488-1.08,1.576,1.576,0,0,1,1.123-.465,2.323,2.323,0,0,1,.281.018,1.468,1.468,0,0,1,.918.549,1.646,1.646,0,0,1,.337,1.033m9.4,14.722a1.408,1.408,0,0,1,.864-1.3,1.423,1.423,0,0,1,1.542.288,1.34,1.34,0,0,1,.422,1.015,1.4,1.4,0,0,1-.4.986,1.319,1.319,0,0,1-1,.428,1.421,1.421,0,0,1-1.424-1.415m3.015,0a1.314,1.314,0,0,1,.44-1,1.405,1.405,0,0,1,.983-.411,1.445,1.445,0,0,1,.982.39,1.3,1.3,0,0,1,.44,1.027,1.353,1.353,0,0,1-.431.986,1.29,1.29,0,0,1-.992.428,1.434,1.434,0,0,1-1.423-1.415" transform="translate(-2511.905 -317.668)" fill="#01458e"/>
    <path id="Path_6523" data-name="Path 6523" d="M3137.168,283.268a4.54,4.54,0,0,0,1.545,1.9,3.721,3.721,0,0,0,2.331.822v1.541a6.478,6.478,0,0,1-3.6-.837,8.568,8.568,0,0,1-2.145-1.805,10.521,10.521,0,0,1-6.028,2.791,10.594,10.594,0,0,0,.3,1.233q.206.688.487,1.377l-3.108.8a23.071,23.071,0,0,1-.636-3.555,4.756,4.756,0,0,1-1.329,0v-1.541h.13a7.915,7.915,0,0,0,1.137-.074,14.069,14.069,0,0,1,.01-2.355q.1-1.256.382-2.82a6.77,6.77,0,0,1,.337-1.35q.261-.754.62-1.536l-1.049.521-3.183-8.078,2.7-1.378,2.435,7.37a5.666,5.666,0,0,1,2.836-1.871,5.784,5.784,0,0,1,3.492.019,4.89,4.89,0,0,1,2.63,1.814,5.454,5.454,0,0,1,.827,3.369,6.727,6.727,0,0,1-1.114,3.648m-7.7-2.792a22.838,22.838,0,0,0-.392,2.848q-.1,1.335-.076,2.531a7.494,7.494,0,0,0,3.118-.837,7.823,7.823,0,0,0,2.332-2.029,6.125,6.125,0,0,0,1.562-4.235,3.13,3.13,0,0,0-1.506-2.643,2.656,2.656,0,0,0-2.791.168q-1.479.884-2.248,4.2" transform="translate(-2780.635 -248.81)" fill="#01458e"/>
    <path id="Path_6524" data-name="Path 6524" d="M3371.327,396.693a4.6,4.6,0,0,1-2.922-1.321l-.413.616a2.71,2.71,0,0,1-2.265.7,5.128,5.128,0,0,1-2.7-.791,4.385,4.385,0,0,1-4.121.428,3.3,3.3,0,0,1-1.627-1.173q-.6,1.438-3.427,1.541V395.15h.055q1.629,0,1.757-1.814t-1.629-5.835l2.9-.353a13.589,13.589,0,0,0,1.7,5.5q1.4,2.448,1.873,2.447,1.16-.129.431-2.866a21.227,21.227,0,0,0-1.873-4.8l3.127-.354a19.131,19.131,0,0,0,1.011,4.485,18.249,18.249,0,0,0,1.282,2.541q.684,1.107,1.433,1,.6-.111.487-1.312a11.455,11.455,0,0,0-.59-2.605,20.987,20.987,0,0,0-1.058-2.578,5.961,5.961,0,0,1-.524-1.173l3.277-.521.842,3.927q.955,3.071,1.844,3.722t1.114.6Z" transform="translate(-2993.784 -357.972)" fill="#01458e"/>
    <path id="Path_6525" data-name="Path 6525" d="M3577.994,287.994a5.285,5.285,0,0,1-3.876-1.233,7.889,7.889,0,0,1-2.023-2.671,4.75,4.75,0,0,1-.665,2.011,3.121,3.121,0,0,1-1.535,1.554,4.972,4.972,0,0,1-1.808.344v-1.541a2.775,2.775,0,0,0,1.985-2.877,21.391,21.391,0,0,0-.552-4.783q-.571-2.577-2.088-7.7l2.716-1.675a56.022,56.022,0,0,0,2.162,10.264,17.339,17.339,0,0,0,2.639,5.053,4.005,4.005,0,0,0,3.08,1.787Z" transform="translate(-3191.287 -249.272)" fill="#01458e"/>
    <path id="Path_6526" data-name="Path 6526" d="M3681.366,256.475a1.625,1.625,0,0,1,1.188.493,1.642,1.642,0,0,1,0,2.355,1.687,1.687,0,0,1-1.841.366,1.67,1.67,0,0,1,.651-3.214m-.187,18q3.6-.223,4.784-1.722a3.864,3.864,0,0,0,1.04-2.8,3.774,3.774,0,0,1-4.238.735q-2.125-1-2.425-4.038a3.686,3.686,0,0,1,2.341-4.16,4.392,4.392,0,0,1,3.721.242q1.827.949,2.668,4.9a8.064,8.064,0,0,1-1.086,5.361,5.6,5.6,0,0,1-3.118,2.587,14.533,14.533,0,0,1-3.679.447Zm4.792-9.143a2.529,2.529,0,0,0-2.078-2.084q-1.816.484-1.254,3.573t2.641,2.941a4.3,4.3,0,0,0-.141-2.1,11.536,11.536,0,0,0-.908-1.991Z" transform="translate(-3295.099 -237.297)" fill="#01458e"/>
    <path id="Path_6527" data-name="Path 6527" d="M3937.686,322.123q-.15-.893-.281-1.74a11.317,11.317,0,0,1-.131-1.74l3.411-.688a13.255,13.255,0,0,0,.159,3.5,42.74,42.74,0,0,0,.871,4.262,11.3,11.3,0,0,0,1.7,3.742,4.194,4.194,0,0,0,2.471,1.9V332.9a6.952,6.952,0,0,1-5.5-2.531,5.715,5.715,0,0,1-3.52,2.41,5.227,5.227,0,0,1-4.6-.958,7.179,7.179,0,0,1-2.295-9.041,3.719,3.719,0,0,1,3.928-2.149,6.255,6.255,0,0,1,2.023.429,8.4,8.4,0,0,1,1.778,1.061m.712,3.685a5.194,5.194,0,0,0-1.3-2.531,2.987,2.987,0,0,0-5.026,1.275,5.309,5.309,0,0,0,.31,3.313,4.733,4.733,0,0,0,2.246,2.578,3.71,3.71,0,0,0,2.762.447,4.3,4.3,0,0,0-.14-2.3,10.214,10.214,0,0,0-1.151-1.982Z" transform="translate(-3525.855 -294.18)" fill="#01458e"/>
    <path id="Path_6528" data-name="Path 6528" d="M4141.41,393.979a1.435,1.435,0,0,1,.393-.977,1.321,1.321,0,0,1,1.033-.438,1.307,1.307,0,0,1,.974.428,1.277,1.277,0,0,1,.43.986,1.408,1.408,0,0,1-1.4,1.416,1.4,1.4,0,0,1-1.423-1.415m.47-4.82a2.057,2.057,0,0,0,1.815-1.275,4.5,4.5,0,0,0-.15-3.62,12.8,12.8,0,0,0-1.144-2.68l3.127-1.154a28.621,28.621,0,0,0,.469,3.238,7.782,7.782,0,0,0,1.684,3.983,4.333,4.333,0,0,0,2.36,1.507V390.7a6.471,6.471,0,0,1-2.293-.39,6.236,6.236,0,0,1-2.293-1.824,3,3,0,0,1-1.414,1.61,4.313,4.313,0,0,1-2.162.605Zm2.545,4.82a1.406,1.406,0,0,1,2.416-.986,1.274,1.274,0,0,1,.431.986,1.345,1.345,0,0,1-.422,1,1.43,1.43,0,0,1-2,0,1.35,1.35,0,0,1-.421-1" transform="translate(-3722.094 -351.984)" fill="#01458e"/>
    <path id="Path_6529" data-name="Path 6529" d="M4231.021,356.109a12.921,12.921,0,0,1,2.369-1.926,23.319,23.319,0,0,1,3.736-2.066,13.4,13.4,0,0,1,3.847-1.1,2.769,2.769,0,0,1,2.723.94q.918,1.541-.5,3.471a18.437,18.437,0,0,1-2.425,2.82,11.628,11.628,0,0,0,3.308,3.1,6.176,6.176,0,0,0,2.631.567v1.541a6.88,6.88,0,0,1-4.475-1.3,22.446,22.446,0,0,1-2.641-2.494,18.617,18.617,0,0,1-3,2.513,7.934,7.934,0,0,1-3.838,1.284h-.711v-1.541a7.08,7.08,0,0,0,2.882-.744,11.915,11.915,0,0,0,3.483-2.68,15.8,15.8,0,0,0-2.1-1.628q-.937-.587-1.387-.4l-.739.7a5.024,5.024,0,0,1-.777.605Zm5.673-.837a10.7,10.7,0,0,1,2.772,1.768q.242-.206,1.61-1.657a5.679,5.679,0,0,0,1.447-1.952q-.077-.8-2.481,0a7.84,7.84,0,0,0-3.342,1.842" transform="translate(-3804.958 -324.741)" fill="#01458e"/>
    <path id="Path_6530" data-name="Path 6530" d="M4459.491,347.137a7.565,7.565,0,0,0-3.988.28,30.632,30.632,0,0,0-3.744,1.637,33.967,33.967,0,0,1-3.783,1.675,7.335,7.335,0,0,1-3.071.6,4.905,4.905,0,0,1-2.528-.763,5.68,5.68,0,0,1-1.742-1.952,2.833,2.833,0,0,1-.786,2.029q-.806.875-2.913.6t-3.72-3.407q-1.757,3.7-4.568,3.5v-1.509h.188a2.8,2.8,0,0,0,.748-.233,3.125,3.125,0,0,0,1.255-1.4,13.228,13.228,0,0,0,1.217-3.35,8.618,8.618,0,0,1,1.639-3.5,3.915,3.915,0,0,1,3.491-1.144,6.376,6.376,0,0,1,2.864,3.35,29.054,29.054,0,0,0,2.267,4.225,4.43,4.43,0,0,0,2.939,1.992,13.1,13.1,0,0,0,1.61-.3,11.138,11.138,0,0,0,2.742-1.052q1.378-.735,2.36-1.275a2.9,2.9,0,0,0,1.137-.856q-.937-.241-2.238-.688a21.793,21.793,0,0,1-2.565-1.071,13.38,13.38,0,0,1-2.273-1.405,3.759,3.759,0,0,1-1.331-1.694,7.425,7.425,0,0,1,.972-2.055q.847-1.386,1.5-1.5a6.968,6.968,0,0,0,2.256,3.192,14.493,14.493,0,0,0,3.64,2.187,16.75,16.75,0,0,0,4.031,1.135,9.875,9.875,0,0,0,3.371.018Zm-23.537-5.416q-1.178.279-1.8,3.574l1.18-.688a11.027,11.027,0,0,0,1.741,4.086,3.15,3.15,0,0,0,1.629,1.2,5.5,5.5,0,0,0-.01-4.541,6.91,6.91,0,0,0-2.744-3.63m12.36,12.88a1.407,1.407,0,0,1,1.407-1.416,1.409,1.409,0,0,1,1.011.41,1.412,1.412,0,1,1-1.994,2,1.358,1.358,0,0,1-.421-1" transform="translate(-3987.73 -312.604)" fill="#01458e"/>
    <path id="Path_6531" data-name="Path 6531" d="M58.445,680.3h2.687c2.11,0,3.535.893,3.535,3.493,0,2.493-1.417,3.659-3.477,3.659H59.639v4.7h-1.2Zm2.6,5.925a2.119,2.119,0,0,0,2.433-2.437c0-1.708-.836-2.265-2.49-2.265H59.639v4.7Z" transform="translate(53.742 -629.429)" fill="#01458e"/>
    <path id="Path_6532" data-name="Path 6532" d="M146.4,725.207c0-1.912,1.311-2.867,4.284-3.274,0-1.13-.3-2.216-1.44-2.216a3.4,3.4,0,0,0-2.08.941l-.462-1.018a4.479,4.479,0,0,1,2.74-1.146c1.7,0,2.422,1.424,2.422,3.608v5.383h-.976l-.1-1.049h-.039a3.393,3.393,0,0,1-2.307,1.266c-1.167,0-2.043-.912-2.043-2.494m4.284.138v-2.437c-2.338.353-3.127,1.073-3.127,2.2,0,1,.538,1.4,1.223,1.4a2.676,2.676,0,0,0,1.906-1.161" transform="translate(-27.6 -664.768)" fill="#01458e"/>
    <path id="Path_6533" data-name="Path 6533" d="M244.836,677.847v-11.1h1.18v11.206c0,.454.157.634.33.634a.828.828,0,0,0,.258-.036l.16,1.13a1.559,1.559,0,0,1-.679.139c-.885,0-1.248-.71-1.248-1.979" transform="translate(-118.628 -616.893)" fill="#01458e"/>
    <path id="Path_6534" data-name="Path 6534" d="M281.813,723.11c0-2.856,1.53-4.616,3.136-4.616,1.779,0,2.784,1.608,2.784,4.118a5.889,5.889,0,0,1-.055.843h-4.7c.085,1.858.988,3.063,2.318,3.063a2.65,2.65,0,0,0,1.735-.7l.423.974a3.56,3.56,0,0,1-2.3.91c-1.86,0-3.339-1.711-3.339-4.592m4.876-.719c0-1.759-.628-2.714-1.72-2.714-.981,0-1.86.99-2,2.714Z" transform="translate(-152.823 -664.77)" fill="#01458e"/>
    <path id="Path_6535" data-name="Path 6535" d="M369.581,726.484l.583-.978a2.837,2.837,0,0,0,2.059,1.04,1.286,1.286,0,0,0,1-.371,1.27,1.27,0,0,0,.37-1c0-.9-.827-1.3-1.6-1.663-.978-.45-2.08-1.054-2.08-2.534a2.311,2.311,0,0,1,.643-1.78,2.34,2.34,0,0,1,1.763-.711,3.137,3.137,0,0,1,2.17.986l-.564.951a2.354,2.354,0,0,0-1.591-.781,1.2,1.2,0,0,0-.932.337,1.181,1.181,0,0,0-.353.921c0,.834.759,1.152,1.55,1.522,1.006.477,2.127.992,2.127,2.662a2.429,2.429,0,0,1-.686,1.87,2.46,2.46,0,0,1-1.859.739,3.729,3.729,0,0,1-2.6-1.218" transform="translate(-233.989 -664.77)" fill="#01458e"/>
    <path id="Path_6536" data-name="Path 6536" d="M442.334,697v-4.852H441.3v-1.125l1.09-.085.142-2.46h.986v2.46h1.89v1.209h-1.89v4.876c0,1.073.275,1.694,1.079,1.694a1.949,1.949,0,0,0,.795-.235l.228,1.12a3.465,3.465,0,0,1-1.294.325c-1.484,0-1.987-1.183-1.987-2.929" transform="translate(-300.309 -637.002)" fill="#01458e"/>
    <path id="Path_6537" data-name="Path 6537" d="M507.064,672.575a.82.82,0,0,1,.363-.824.831.831,0,0,1,.9,0,1.116,1.116,0,0,1,0,1.647.831.831,0,0,1-.9,0,.82.82,0,0,1-.363-.824m.216,2.763h1.18v8.774h-1.18Z" transform="translate(-361.13 -621.396)" fill="#01458e"/>
    <path id="Path_6538" data-name="Path 6538" d="M552.27,718.706h.975l.1,1.266h.039a3.154,3.154,0,0,1,2.34-1.482c1.47,0,2.13,1.194,2.13,3.431v5.56h-1.18v-5.368c0-1.635-.393-2.334-1.317-2.334-.713,0-1.207.458-1.907,1.348v6.354H552.27Z" transform="translate(-402.936 -664.77)" fill="#01458e"/>
    <path id="Path_6539" data-name="Path 6539" d="M645.7,723.11c0-2.856,1.529-4.616,3.136-4.616,1.779,0,2.784,1.608,2.784,4.118a5.908,5.908,0,0,1-.055.843h-4.7c.085,1.858.988,3.063,2.318,3.063a2.65,2.65,0,0,0,1.735-.7l.423.974a3.56,3.56,0,0,1-2.3.91c-1.86,0-3.339-1.711-3.339-4.592m4.876-.719c0-1.759-.628-2.714-1.72-2.714-.981,0-1.86.99-2,2.714Z" transform="translate(-489.339 -664.77)" fill="#01458e"/>
    <path id="Path_6540" data-name="Path 6540" d="M769.943,680.3H771.3l3.186,11.847h-1.273l-1.642-6.617c-.339-1.324-.641-2.625-.943-3.992h-.058c-.292,1.375-.593,2.671-.93,3.992l-1.661,6.617h-1.219Zm-1.511,7.035h4.341v1.2h-4.341Z" transform="translate(-601.289 -629.429)" fill="#01458e"/>
    <path id="Path_6541" data-name="Path 6541" d="M875.17,726.484l.583-.978a2.838,2.838,0,0,0,2.059,1.04,1.286,1.286,0,0,0,1-.371,1.27,1.27,0,0,0,.37-1c0-.9-.827-1.3-1.6-1.663-.978-.45-2.081-1.054-2.081-2.534a2.311,2.311,0,0,1,.643-1.78,2.34,2.34,0,0,1,1.763-.711,3.138,3.138,0,0,1,2.17.986l-.564.951a2.352,2.352,0,0,0-1.591-.781,1.2,1.2,0,0,0-.932.337,1.18,1.18,0,0,0-.353.921c0,.834.759,1.152,1.55,1.522,1.006.477,2.127.992,2.127,2.662a2.428,2.428,0,0,1-.686,1.87,2.459,2.459,0,0,1-1.859.739,3.729,3.729,0,0,1-2.6-1.218" transform="translate(-701.547 -664.77)" fill="#01458e"/>
    <path id="Path_6542" data-name="Path 6542" d="M951.459,726.484l.583-.978a2.839,2.839,0,0,0,2.059,1.04,1.286,1.286,0,0,0,1-.371,1.269,1.269,0,0,0,.37-1c0-.9-.827-1.3-1.6-1.663-.978-.45-2.08-1.054-2.08-2.534a2.311,2.311,0,0,1,.643-1.78,2.341,2.341,0,0,1,1.763-.711,3.138,3.138,0,0,1,2.17.986l-.564.951a2.352,2.352,0,0,0-1.59-.781,1.2,1.2,0,0,0-.932.337,1.18,1.18,0,0,0-.353.921c0,.834.758,1.152,1.55,1.522,1.006.477,2.127.992,2.127,2.662a2.429,2.429,0,0,1-.686,1.87,2.46,2.46,0,0,1-1.859.739,3.729,3.729,0,0,1-2.6-1.218" transform="translate(-772.098 -664.77)" fill="#01458e"/>
    <path id="Path_6543" data-name="Path 6543" d="M1031.14,723.11c0-2.928,1.522-4.616,3.233-4.616s3.233,1.687,3.233,4.616c0,2.905-1.522,4.592-3.233,4.592s-3.233-1.687-3.233-4.592m5.245,0c0-2.01-.812-3.379-2.012-3.379s-2.013,1.368-2.013,3.379.813,3.356,2.013,3.356,2.012-1.346,2.012-3.356" transform="translate(-845.786 -664.77)" fill="#01458e"/>
    <path id="Path_6544" data-name="Path 6544" d="M1132.6,723.11c0-2.928,1.573-4.616,3.356-4.616a2.662,2.662,0,0,1,2.04,1.027l-.6.982a1.863,1.863,0,0,0-1.384-.776c-1.263,0-2.189,1.368-2.189,3.379s.874,3.356,2.158,3.356a2.292,2.292,0,0,0,1.637-.874l.517,1a3.049,3.049,0,0,1-2.255,1.116c-1.86,0-3.272-1.687-3.272-4.592" transform="translate(-939.616 -664.77)" fill="#01458e"/>
    <path id="Path_6545" data-name="Path 6545" d="M1221.681,672.575a.82.82,0,0,1,.363-.824.831.831,0,0,1,.9,0,1.117,1.117,0,0,1,0,1.648.831.831,0,0,1-.9,0,.82.82,0,0,1-.363-.824m.216,2.763h1.18v8.774h-1.18Z" transform="translate(-1021.994 -621.396)" fill="#01458e"/>
    <path id="Path_6546" data-name="Path 6546" d="M1261.15,725.207c0-1.912,1.312-2.867,4.284-3.274,0-1.13-.3-2.216-1.44-2.216a3.4,3.4,0,0,0-2.08.941l-.462-1.018a4.48,4.48,0,0,1,2.74-1.146c1.7,0,2.423,1.424,2.423,3.608v5.383h-.975l-.1-1.049h-.039a3.393,3.393,0,0,1-2.307,1.266c-1.168,0-2.044-.912-2.044-2.494m4.284.138v-2.437c-2.338.353-3.127,1.073-3.127,2.2,0,1,.538,1.4,1.223,1.4a2.675,2.675,0,0,0,1.906-1.161" transform="translate(-1058.488 -664.768)" fill="#01458e"/>
    <path id="Path_6547" data-name="Path 6547" d="M1346.9,697v-4.852h-1.033v-1.125l1.091-.085.142-2.46h.986v2.46h1.889v1.209h-1.889v4.876c0,1.073.275,1.694,1.079,1.694a1.949,1.949,0,0,0,.795-.235l.227,1.12a3.468,3.468,0,0,1-1.294.325c-1.484,0-1.987-1.184-1.987-2.929" transform="translate(-1136.832 -637.002)" fill="#01458e"/>
    <path id="Path_6548" data-name="Path 6548" d="M1411.631,672.575a.82.82,0,0,1,.363-.824.831.831,0,0,1,.9,0,1.115,1.115,0,0,1,0,1.647.831.831,0,0,1-.9,0,.82.82,0,0,1-.363-.824m.216,2.763h1.18v8.774h-1.18Z" transform="translate(-1197.655 -621.396)" fill="#01458e"/>
    <path id="Path_6549" data-name="Path 6549" d="M1449.951,723.11c0-2.928,1.522-4.616,3.232-4.616s3.233,1.687,3.233,4.616c0,2.905-1.522,4.592-3.233,4.592s-3.232-1.687-3.232-4.592m5.245,0c0-2.01-.812-3.379-2.012-3.379s-2.013,1.368-2.013,3.379.813,3.356,2.013,3.356,2.012-1.346,2.012-3.356" transform="translate(-1233.097 -664.77)" fill="#01458e"/>
    <path id="Path_6550" data-name="Path 6550" d="M1558.3,718.706h.975l.1,1.266h.039a3.153,3.153,0,0,1,2.34-1.482c1.47,0,2.13,1.194,2.13,3.431v5.56h-1.18v-5.368c0-1.635-.393-2.334-1.317-2.334-.713,0-1.207.458-1.907,1.348v6.354H1558.3Z" transform="translate(-1333.294 -664.77)" fill="#01458e"/>
    <path id="Path_6551" data-name="Path 6551" d="M1686.76,668.242l1-.085h2.605v1.21h-3.6Zm.947-1.471c0-1.784.645-2.917,2.043-2.917a2.559,2.559,0,0,1,1.158.3l-.249,1.13a1.6,1.6,0,0,0-.791-.226c-.659,0-.982.578-.982,1.713v10.155h-1.18Z" transform="translate(-1452.09 -614.216)" fill="#01458e"/>
    <path id="Path_6552" data-name="Path 6552" d="M1736.03,723.11c0-2.928,1.522-4.616,3.232-4.616s3.233,1.687,3.233,4.616c0,2.905-1.522,4.592-3.233,4.592s-3.232-1.687-3.232-4.592m5.245,0c0-2.01-.813-3.379-2.012-3.379s-2.013,1.368-2.013,3.379.813,3.356,2.013,3.356,2.012-1.346,2.012-3.356" transform="translate(-1497.653 -664.77)" fill="#01458e"/>
    <path id="Path_6553" data-name="Path 6553" d="M1844.38,718.706h.975l.1,1.6h.039c.486-1.114,1.2-1.814,1.983-1.814a1.339,1.339,0,0,1,.745.181l-.22,1.3a1.6,1.6,0,0,0-.677-.145c-.589,0-1.293.534-1.765,2.018v5.634h-1.18Z" transform="translate(-1597.854 -664.77)" fill="#01458e"/>
    <path id="Path_6554" data-name="Path 6554" d="M1942.35,680.3h5.429v1.276h-4.23v3.712h3.568v1.276h-3.568v4.308h4.374v1.276h-5.571Z" transform="translate(-1688.455 -629.429)" fill="#01458e"/>
    <path id="Path_6555" data-name="Path 6555" d="M2029.641,675.235c0-2.846,1.427-4.616,3.018-4.616a2.6,2.6,0,0,1,1.954,1.017l-.049-1.505V666.75h1.18v12.86h-.975l-.1-1.036h-.039a2.881,2.881,0,0,1-2.117,1.252c-1.743,0-2.873-1.668-2.873-4.592m4.922,2.145v-4.6a2.231,2.231,0,0,0-1.7-.912c-1.115,0-2,1.353-2,3.353,0,2.1.691,3.356,1.915,3.356a2.3,2.3,0,0,0,1.788-1.2" transform="translate(-1769.176 -616.895)" fill="#01458e"/>
    <path id="Path_6556" data-name="Path 6556" d="M2137.99,726.948v-5.56h1.182v5.368c0,1.635.393,2.334,1.316,2.334.712,0,1.207-.445,1.867-1.478v-6.224h1.18v8.774h-.975l-.1-1.374h-.04a2.868,2.868,0,0,1-2.3,1.59c-1.47,0-2.13-1.193-2.13-3.431" transform="translate(-1869.375 -667.448)" fill="#01458e"/>
    <path id="Path_6557" data-name="Path 6557" d="M2232.28,723.11c0-2.928,1.572-4.616,3.356-4.616a2.661,2.661,0,0,1,2.04,1.027l-.6.982a1.862,1.862,0,0,0-1.384-.776c-1.263,0-2.189,1.368-2.189,3.379s.874,3.356,2.157,3.356a2.293,2.293,0,0,0,1.638-.874l.517,1a3.049,3.049,0,0,1-2.255,1.116c-1.86,0-3.272-1.687-3.272-4.592" transform="translate(-1956.575 -664.77)" fill="#01458e"/>
    <path id="Path_6558" data-name="Path 6558" d="M2316.581,725.207c0-1.912,1.312-2.867,4.284-3.274,0-1.13-.3-2.216-1.44-2.216a3.4,3.4,0,0,0-2.08.941l-.463-1.018a4.478,4.478,0,0,1,2.739-1.145c1.7,0,2.423,1.424,2.423,3.608v5.383h-.974l-.1-1.049h-.039a3.392,3.392,0,0,1-2.307,1.266c-1.168,0-2.043-.912-2.043-2.494m4.284.138v-2.437c-2.338.353-3.129,1.074-3.129,2.2,0,1,.539,1.4,1.223,1.4a2.677,2.677,0,0,0,1.906-1.161" transform="translate(-2034.531 -664.769)" fill="#01458e"/>
    <path id="Path_6559" data-name="Path 6559" d="M2402.333,697v-4.852H2401.3v-1.125l1.091-.085.141-2.46h.986v2.46h1.889v1.209h-1.889v4.876c0,1.073.274,1.694,1.078,1.694a1.95,1.95,0,0,0,.8-.235l.227,1.12a3.47,3.47,0,0,1-1.294.325c-1.485,0-1.988-1.183-1.988-2.929" transform="translate(-2112.875 -637.002)" fill="#01458e"/>
    <path id="Path_6560" data-name="Path 6560" d="M2467.071,672.575a.821.821,0,0,1,.362-.827.831.831,0,0,1,.907,0,1.127,1.127,0,0,1,0,1.654.831.831,0,0,1-.907,0,.82.82,0,0,1-.361-.827m.216,2.762h1.179v8.774h-1.179Z" transform="translate(-2173.698 -621.396)" fill="#01458e"/>
    <path id="Path_6561" data-name="Path 6561" d="M2505.39,723.11c0-2.928,1.522-4.616,3.232-4.616s3.233,1.687,3.233,4.616c0,2.905-1.522,4.592-3.233,4.592s-3.232-1.687-3.232-4.592m5.245,0c0-2.01-.814-3.379-2.013-3.379s-2.013,1.368-2.013,3.379.813,3.356,2.013,3.356,2.013-1.346,2.013-3.356" transform="translate(-2209.137 -664.77)" fill="#01458e"/>
    <path id="Path_6562" data-name="Path 6562" d="M2613.741,718.706h.976l.1,1.266h.039a3.156,3.156,0,0,1,2.34-1.482c1.47,0,2.129,1.194,2.129,3.431v5.56h-1.185v-5.368c0-1.635-.393-2.334-1.315-2.334-.713,0-1.207.458-1.907,1.348v6.354h-1.18Z" transform="translate(-2309.338 -664.77)" fill="#01458e"/>
    <path id="Path_6563" data-name="Path 6563" d="M2742.68,686.4c0-3.516,4.3-4.088,4.3-6.632,0-.688-.249-1.306-.89-1.306-.7,0-1.157.74-1.157,1.726,0,2.212,1.934,5.165,3.74,6.85a6.394,6.394,0,0,0,2.073,1.405l-.32,1.233a6.973,6.973,0,0,1-2.46-1.65c-2.067-2.012-4.05-5.309-4.05-7.818,0-1.583.87-2.812,2.17-2.812,1.166,0,1.852.969,1.852,2.346,0,3.04-4.113,3.964-4.113,6.566a1.958,1.958,0,0,0,.455,1.492,1.982,1.982,0,0,0,1.405.694,2.943,2.943,0,0,0,2.156-1.393,10.561,10.561,0,0,0,1.689-4.027h1.1a13.99,13.99,0,0,1-1.964,4.737,3.828,3.828,0,0,1-3.113,1.866c-1.7,0-2.87-1.373-2.87-3.279" transform="translate(-2428.578 -626.751)" fill="#01458e"/>
    <path id="Path_6564" data-name="Path 6564" d="M2898.99,680.3h5.429v1.276h-4.23v3.712h3.569v1.276h-3.569v4.308h4.372v1.276h-5.572Z" transform="translate(-2573.135 -629.429)" fill="#01458e"/>
    <path id="Path_6565" data-name="Path 6565" d="M2994.791,718.706h.976l.1,1.266h.039a3.152,3.152,0,0,1,2.34-1.482c1.471,0,2.13,1.194,2.13,3.431v5.56H2999.2v-5.368c0-1.635-.392-2.334-1.315-2.334-.713,0-1.207.458-1.908,1.348v6.354h-1.18Z" transform="translate(-2661.728 -664.77)" fill="#01458e"/>
    <path id="Path_6566" data-name="Path 6566" d="M3081.75,721.39h1.217l1.32,4.985c.207.857.435,1.746.644,2.588h.058c.207-.837.435-1.731.644-2.588l1.32-4.985h1.156l-2.468,8.774h-1.371Z" transform="translate(-2742.146 -667.448)" fill="#01458e"/>
    <path id="Path_6567" data-name="Path 6567" d="M3172.721,672.575a.82.82,0,0,1,.363-.824.832.832,0,0,1,.905,0,1.116,1.116,0,0,1,0,1.647.831.831,0,0,1-.9,0,.82.82,0,0,1-.363-.823m.216,2.763h1.181v8.774h-1.181Z" transform="translate(-2826.271 -621.396)" fill="#01458e"/>
    <path id="Path_6568" data-name="Path 6568" d="M3217.93,718.706h.975l.1,1.6h.038c.486-1.114,1.2-1.814,1.983-1.814a1.34,1.34,0,0,1,.745.181l-.22,1.3a1.594,1.594,0,0,0-.677-.145c-.589,0-1.293.534-1.764,2.018v5.634h-1.18Z" transform="translate(-2868.081 -664.77)" fill="#01458e"/>
    <path id="Path_6569" data-name="Path 6569" d="M3267.5,723.11c0-2.928,1.522-4.616,3.232-4.616s3.233,1.687,3.233,4.616c0,2.905-1.522,4.592-3.233,4.592s-3.232-1.687-3.232-4.592m5.244,0c0-2.01-.812-3.379-2.012-3.379s-2.013,1.368-2.013,3.379.813,3.356,2.013,3.356,2.012-1.346,2.012-3.356" transform="translate(-2913.92 -664.77)" fill="#01458e"/>
    <path id="Path_6570" data-name="Path 6570" d="M3375.851,718.706h.976l.1,1.266h.04a3.152,3.152,0,0,1,2.34-1.482c1.47,0,2.129,1.194,2.129,3.431v5.56h-1.18v-5.368c0-1.635-.393-2.334-1.316-2.334-.713,0-1.207.458-1.907,1.348v6.354h-1.18Z" transform="translate(-3014.118 -664.77)" fill="#01458e"/>
    <path id="Path_6571" data-name="Path 6571" d="M3476.16,718.706h.975l.1,1.272h.04a2.991,2.991,0,0,1,2.17-1.489,1.925,1.925,0,0,1,1.926,1.672c.723-.986,1.446-1.672,2.3-1.672,1.432,0,2.122,1.194,2.122,3.431v5.56h-1.18v-5.368c0-1.635-.414-2.334-1.3-2.334-.542,0-1.1.445-1.748,1.348v6.354h-1.181v-5.368c0-1.635-.413-2.334-1.3-2.334-.521,0-1.1.445-1.747,1.348v6.354h-1.18Z" transform="translate(-3106.888 -664.77)" fill="#01458e"/>
    <path id="Path_6572" data-name="Path 6572" d="M3623,723.11c0-2.856,1.53-4.616,3.136-4.616,1.78,0,2.784,1.608,2.784,4.118a5.871,5.871,0,0,1-.055.843h-4.7c.083,1.858.987,3.063,2.317,3.063a2.652,2.652,0,0,0,1.735-.7l.423.974a3.561,3.561,0,0,1-2.3.91c-1.861,0-3.341-1.711-3.341-4.592m4.877-.719c0-1.759-.628-2.714-1.719-2.714-.98,0-1.86.99-2,2.714Z" transform="translate(-3242.677 -664.77)" fill="#01458e"/>
    <path id="Path_6573" data-name="Path 6573" d="M3721.051,718.706h.976l.1,1.266h.039a3.156,3.156,0,0,1,2.34-1.482c1.47,0,2.129,1.194,2.129,3.431v5.56h-1.179v-5.368c0-1.635-.393-2.334-1.315-2.334-.713,0-1.207.458-1.907,1.348v6.354h-1.18Z" transform="translate(-3333.353 -664.77)" fill="#01458e"/>
    <path id="Path_6574" data-name="Path 6574" d="M3811.354,697v-4.852h-1.034v-1.125l1.09-.085.141-2.46h.986v2.46h1.889v1.209h-1.889v4.876c0,1.073.273,1.694,1.078,1.694a1.947,1.947,0,0,0,.795-.235l.228,1.12a3.467,3.467,0,0,1-1.3.325c-1.484,0-1.987-1.183-1.987-2.929" transform="translate(-3415.908 -637.002)" fill="#01458e"/>
    <path id="Path_6575" data-name="Path 6575" d="M3869.211,725.207c0-1.912,1.311-2.867,4.284-3.274,0-1.13-.3-2.216-1.441-2.216a3.4,3.4,0,0,0-2.08.941l-.461-1.018a4.479,4.479,0,0,1,2.739-1.145c1.7,0,2.423,1.424,2.423,3.608v5.383h-.975l-.1-1.049h-.04a3.393,3.393,0,0,1-2.307,1.266c-1.167,0-2.043-.912-2.043-2.494m4.284.138v-2.437c-2.338.353-3.127,1.074-3.127,2.2,0,1,.538,1.4,1.223,1.4a2.676,2.676,0,0,0,1.906-1.161" transform="translate(-3470.371 -664.769)" fill="#01458e"/>
    <path id="Path_6576" data-name="Path 6576" d="M3967.641,677.847v-11.1h1.18v11.206c0,.454.157.634.33.634a.821.821,0,0,0,.258-.036l.16,1.13a1.558,1.558,0,0,1-.679.139c-.885,0-1.249-.71-1.249-1.979" transform="translate(-3561.4 -616.893)" fill="#01458e"/>
    <path id="Path_6577" data-name="Path 6577" d="M4051.121,680.3h2.687c2.11,0,3.534.893,3.534,3.493,0,2.493-1.417,3.659-3.476,3.659h-1.551v4.7h-1.2Zm2.595,5.925a2.119,2.119,0,0,0,2.434-2.437c0-1.708-.837-2.265-2.489-2.265h-1.344v4.7Z" transform="translate(-3638.595 -629.429)" fill="#01458e"/>
    <path id="Path_6578" data-name="Path 6578" d="M4153.021,718.706H4154l.1,1.6h.04c.486-1.114,1.2-1.814,1.983-1.814a1.341,1.341,0,0,1,.745.181l-.22,1.3a1.6,1.6,0,0,0-.677-.145c-.589,0-1.293.534-1.764,2.018v5.634h-1.182Z" transform="translate(-3732.832 -664.77)" fill="#01458e"/>
    <path id="Path_6579" data-name="Path 6579" d="M4202.592,723.11c0-2.928,1.523-4.616,3.231-4.616s3.233,1.687,3.233,4.616c0,2.905-1.522,4.592-3.233,4.592s-3.231-1.687-3.231-4.592m5.244,0c0-2.01-.813-3.379-2.012-3.379s-2.012,1.368-2.012,3.379.813,3.356,2.012,3.356,2.012-1.346,2.012-3.356" transform="translate(-3778.672 -664.77)" fill="#01458e"/>
    <path id="Path_6580" data-name="Path 6580" d="M4297.694,697v-4.852h-1.033v-1.125l1.09-.085.142-2.46h.987v2.46h1.889v1.209h-1.9v4.876c0,1.073.275,1.694,1.078,1.694a1.945,1.945,0,0,0,.794-.235l.229,1.12a3.475,3.475,0,0,1-1.3.325c-1.484,0-1.986-1.183-1.986-2.929" transform="translate(-3865.657 -637.002)" fill="#01458e"/>
    <path id="Path_6581" data-name="Path 6581" d="M4355.73,723.11c0-2.856,1.53-4.616,3.136-4.616,1.778,0,2.783,1.608,2.783,4.118a5.6,5.6,0,0,1-.056.843h-4.7c.086,1.858.988,3.063,2.317,3.063a2.649,2.649,0,0,0,1.736-.7l.423.974a3.557,3.557,0,0,1-2.3.91c-1.859,0-3.338-1.71-3.338-4.592m4.875-.719c0-1.759-.628-2.714-1.719-2.714-.981,0-1.86.99-2,2.714Z" transform="translate(-3920.297 -664.77)" fill="#01458e"/>
    <path id="Path_6582" data-name="Path 6582" d="M4446.9,723.11c0-2.928,1.572-4.616,3.356-4.616a2.662,2.662,0,0,1,2.041,1.027l-.6.982a1.861,1.861,0,0,0-1.383-.776c-1.265,0-2.19,1.368-2.19,3.379s.875,3.356,2.157,3.356a2.3,2.3,0,0,0,1.639-.874l.517,1a3.05,3.05,0,0,1-2.256,1.116c-1.86,0-3.271-1.687-3.271-4.592" transform="translate(-4004.603 -664.77)" fill="#01458e"/>
    <path id="Path_6583" data-name="Path 6583" d="M4526.934,697v-4.852H4525.9v-1.125l1.092-.085.142-2.46h.985v2.46h1.89v1.209h-1.89v4.876c0,1.073.275,1.694,1.079,1.694a1.955,1.955,0,0,0,.8-.235l.228,1.12a3.466,3.466,0,0,1-1.294.325c-1.485,0-1.989-1.183-1.989-2.929" transform="translate(-4077.658 -637.002)" fill="#01458e"/>
    <path id="Path_6584" data-name="Path 6584" d="M4591.67,672.574a.819.819,0,0,1,.363-.823.83.83,0,0,1,.9,0,1.115,1.115,0,0,1,0,1.647.831.831,0,0,1-.9,0,.82.82,0,0,1-.363-.823m.216,2.763h1.181v8.774h-1.181Z" transform="translate(-4138.479 -621.396)" fill="#01458e"/>
    <path id="Path_6585" data-name="Path 6585" d="M4629.992,723.11c0-2.928,1.523-4.616,3.232-4.616s3.232,1.687,3.232,4.616c0,2.905-1.522,4.592-3.232,4.592s-3.232-1.687-3.232-4.592m5.244,0c0-2.01-.812-3.379-2.012-3.379s-2.012,1.368-2.012,3.379.812,3.356,2.012,3.356,2.012-1.346,2.012-3.356" transform="translate(-4173.92 -664.77)" fill="#01458e"/>
    <path id="Path_6586" data-name="Path 6586" d="M4738.341,718.706h.975l.1,1.266h.039a3.159,3.159,0,0,1,2.341-1.482c1.471,0,2.129,1.194,2.129,3.431v5.56h-1.183v-5.368c0-1.635-.393-2.334-1.316-2.334-.713,0-1.208.458-1.906,1.348v6.354h-1.182Z" transform="translate(-4274.12 -664.77)" fill="#01458e"/>
    <path id="Path_6587" data-name="Path 6587" d="M3914.8,226.554a2.04,2.04,0,1,1-2.04-2.027,2.035,2.035,0,0,1,2.04,2.027" transform="translate(-3508.758 -207.736)" fill="#01458e"/>
    <path id="Path_6588" data-name="Path 6588" d="M3977.463,221.13a2.04,2.04,0,1,1-2.041-2.027,2.034,2.034,0,0,1,2.041,2.027" transform="translate(-3566.705 -202.719)" fill="#01458e"/>
    <path id="Path_6589" data-name="Path 6589" d="M1806.542,238.211a2.039,2.039,0,1,1-2.04-2.027,2.033,2.033,0,0,1,2.04,2.027" transform="translate(-1559.09 -218.522)" fill="#01458e"/>
    <path id="Path_6590" data-name="Path 6590" d="M1869.213,232.789a2.04,2.04,0,1,1-2.04-2.027,2.034,2.034,0,0,1,2.04,2.027" transform="translate(-1617.039 -213.506)" fill="#01458e"/>
    <path id="Path_6591" data-name="Path 6591" d="M815.076,247.044a2.033,2.033,0,1,1-.6-1.434,2.034,2.034,0,0,1,.6,1.434" transform="translate(-642.201 -226.695)" fill="#01458e"/>
    <path id="Path_6592" data-name="Path 6592" d="M877.739,241.621a2.039,2.039,0,1,1-2.039-2.027,2.033,2.033,0,0,1,2.039,2.027" transform="translate(-700.151 -221.678)" fill="#01458e"/>
    <path id="Path_6593" data-name="Path 6593" d="M4.079,240.922a1.722,1.722,0,1,0,0,.005" transform="translate(107.791 -221.032)" fill="#01458e"/>
    <path id="Path_6594" data-name="Path 6594" d="M66.742,235.5a2.039,2.039,0,1,1-2.039-2.027,2.033,2.033,0,0,1,2.039,2.027" transform="translate(49.842 -216.015)" fill="#01458e"/>
  </g>
</svg>
