<?xml version="1.0" encoding="UTF-8"?><svg id="Layer_2" xmlns="http://www.w3.org/2000/svg" viewBox="0 0 658 658"><defs><style>.cls-1{fill:#fdfdfd;}.cls-2{fill:#1e75bc;}.cls-3{fill:#fc0101;}.cls-4{fill:#010101;}.cls-5{fill:#fefefe;}</style></defs><g id="Layer_1-2"><g><circle class="cls-2" cx="329" cy="329" r="329"/><g><path class="cls-5" d="M327.08,489.15c-42.1,0-84.2,.23-126.3-.11-18.09-.14-28.2-10.07-29.78-28.02-.55-6.17-.49-12.41-.5-18.62-.03-56.24-.04-112.48,0-168.72,0-6.78,.3-13.55,.51-20.33,.64-21.23,11.55-32.14,32.87-32.28,28.82-.19,57.65-.06,86.48-.06,53.98,0,107.96-.02,161.93,0,23.79,.01,35.15,11.51,35.14,35.4-.04,66.13-.48,132.26,.1,198.39,.21,23.49-14.02,35.12-34.97,35.04-41.83-.17-83.65-.05-125.48-.05v-.65Z"/><path class="cls-4" d="M330.11,168.44c9.61,0,19.26,.55,28.83-.1,27.17-1.84,38.72,16.51,43.09,34.67,2.97,12.37,2.73,12.42-9.88,12.43-2.83,0-5.67-.22-8.48,.04-4.47,.41-6.16-1.2-7.14-5.86-2.22-10.47-7.8-14.94-18.37-15.13-19.21-.35-38.44-.45-57.66-.23-11.39,.13-16.6,4.14-19.4,15.12-1.23,4.84-3.22,6.67-7.98,5.97-1.66-.24-3.39-.04-5.08-.04-14.73,0-14.99-.09-10.42-13.95,9.33-28.27,23.96-34.41,44.52-33.03,9.29,.62,18.65,.11,27.98,.11Z"/><path class="cls-3" d="M329.45,263.08c50.81,.16,91.86,41.51,91.84,92.49-.02,51.21-41.66,92.42-93.11,92.15-50.59-.27-91.96-42.27-91.55-92.96,.41-50.86,41.89-91.84,92.81-91.68Z"/><path class="cls-1" d="M343.5,394.52c0,.85,0,1.69,0,2.54,.11,22.98,.12,22.81-23.08,22.22-4.93-.13-6.2-1.67-6.1-6.35,.26-12.14-.18-24.29,.16-36.43,.14-5.24-1.53-6.83-6.72-6.68-11.85,.35-23.73-.07-35.58,.21-4.84,.11-6.89-.9-7.04-6.4-.58-22.83-.79-22.83,21.91-22.83,7.06,0,14.14-.24,21.18,.16,4.89,.27,6.37-1.47,6.26-6.25-.27-12.14,.13-24.29-.19-36.43-.14-5.18,1.54-6.62,6.71-6.7,22.49-.33,22.48-.5,22.48,22.1,0,6.5,.48,13.03-.1,19.48-.6,6.68,2.07,8.08,8.21,7.82,11.28-.48,22.59,.08,33.88-.21,5.3-.14,7.31,1.27,7.37,7.05,.24,22.13,.46,22.12-21.76,22.12-6.78,0-13.59,.39-20.33-.11-6.18-.46-7.85,1.95-7.34,7.75,.49,5.61,.11,11.29,.11,16.94h-.04Z"/></g></g></g></svg>