<?xml version="1.0" encoding="UTF-8"?><svg id="Layer_2" xmlns="http://www.w3.org/2000/svg" viewBox="0 0 658 658"><defs><style>.cls-1{fill:#24a9e1;}.cls-2{fill:#fdfdfd;}.cls-3{fill:#919296;}.cls-4{fill:#479296;}.cls-5{fill:#1e75bc;}.cls-6{fill:#909295;}</style></defs><g id="Layer_1-2"><g><circle class="cls-5" cx="329" cy="329" r="329"/><g><path class="cls-2" d="M155.36,188.31c-12.68,18.26-6.25,34.62,7.22,51.56,16.81,21.15,38.44,37.13,59.5,53.63,36.16,28.32,72.77,56.06,106.29,87.57,5.6,3.64,4.28,9.49,4.31,14.64,.22,37.3,.18,74.6,.08,111.9-.08,28.68,1.24,57.42-.92,86.02-.75,9.83,1.22,20.62-5.11,29.66-5.05-24.9-9.56-49.92-15.28-74.67-9.61-41.59-20.64-82.75-43.65-119.52-11.73-18.75-29.17-32.04-44.47-47.37-29.1-29.16-60.07-56.57-84.49-90.1-5.98-8.21-11.38-16.75-15.41-26.2-10.3-24.15-5.36-45.21,12.11-63.97,5.59-6,11.8-11.34,18.38-16.24,2.68,0,3.11,1.04,1.43,3.07Z"/><path class="cls-1" d="M326.73,623.3c2.45-7.13,1.82-14.54,1.82-21.86,.02-68.95,0-137.91-.03-206.86,0-4.5-.1-9.01-.15-13.51,31.84-30.89,67.38-57.33,102.12-84.71,22.59-17.8,46.06-34.69,64.05-57.5,9-11.4,16.53-23.82,11.83-39.56-1.47-4.92-3.89-9.36-7.85-13.62,1.64-.2,3.03-.83,3.61-.38,16.22,12.21,30.8,25.61,35.21,46.82,3.28,15.75-1.95,29.63-9.21,42.86-15.26,27.79-37.75,49.77-59.73,72-21.78,22.02-44.76,42.87-66.37,65.05-20.8,21.34-31.14,48.7-40.53,76.31-14.04,41.26-22.32,83.9-29.89,126.7-.77,4.34-1.9,8.61-2.92,13.16-2.62-1.48-1.83-3.31-1.96-4.88Z"/><path class="cls-3" d="M284.51,272.84c-.33-14.79,4.19-27.25,12.61-37.84,10.71-13.47,25.04-18.55,42.2-15,18.49,3.83,29.18,16.61,33.49,33.39,5.86,22.83,2.04,44.52-16.61,61.13-18.59,16.57-48.79,11.38-61.7-9.97-6.11-10.1-10.39-20.63-9.98-31.72Z"/><path class="cls-2" d="M367.94,106.9c-.94,26.79-15.08,46.56-33.85,63.99-3.94,3.66-6.03,.63-8.49-1.44-39.8-33.45-45.41-74.92-15.75-117.9,4.63-6.72,10.17-12.81,15.35-19.15,1.95-2.39,3.89-3.95,6.86-.85,17.15,17.88,36.86,46.02,35.87,75.35Z"/><path class="cls-6" d="M370.31,543.19c3.78-20.88,11.26-40.5,19.8-59.88,18.87-42.78,50.41-75.08,84.89-105.21,23.99-20.97,49.37-40.6,68.97-66.12,12.55-16.34,22.02-34.19,22.89-55.47,.07-1.68,.38-3.4,2.59-5.02,10.53,13.95,14.79,29.12,10.53,46.31-4.97,20.04-17.95,35.02-32,49.03-26.24,26.16-55.88,48.43-84.03,72.41-40.31,34.34-74.3,73.42-93.63,123.95Z"/><path class="cls-3" d="M90.39,250.46c1.52,46.47,31.88,73.85,61.95,101.04,27.2,24.6,56.28,47.26,79.94,75.5,19.31,23.05,34.15,48.94,44.28,77.37,3.31,9.29,6.35,18.69,9.52,28.03,.89,2.63,2.03,5.22,1.25,8.81-3.71-2.7-3.92-6.67-5.23-9.78-16.55-39.05-42.21-71.32-73.85-98.99-25.92-22.68-52.51-44.58-78.49-67.2-19.18-16.7-37.85-33.94-48.78-57.75-8.48-18.47-5.17-42.22,9.41-57.03Z"/><path class="cls-2" d="M238.06,191.3c-43.26-1.52-58.06-30.49-59.13-67.46-.08-2.87,.36-5.04,4.1-4.69,22.64,2.12,44.44,6.06,58.5,26.83,8.34,12.32,10.13,26.32,8.86,40.57-.78,8.69-8.68,2.97-12.32,4.75Z"/><path class="cls-2" d="M420.69,191.29c-12.37,.42-12.54,.25-12.4-11.64,.39-32.04,18.69-52.99,51.15-58.54,.83-.14,1.68-.2,2.52-.32q20.35-2.79,17.27,17.66c-5.13,34.05-24.67,51.69-58.54,52.83Z"/><path class="cls-4" d="M155.36,188.31c-.48-1.02-.95-2.05-1.43-3.07,1.83-2.79,4.64-4.11,8.28-6.28-1.68,4.68-4.44,6.88-6.85,9.35Z"/></g></g></g></svg>