<?xml version="1.0" encoding="UTF-8"?><svg id="Layer_2" xmlns="http://www.w3.org/2000/svg" viewBox="0 0 658 658"><defs><style>.cls-1{fill:#fcfdfb;}.cls-2{fill:#fdfdfd;}.cls-3{fill:#fdfdfc;}.cls-4{fill:#1e75bc;}</style></defs><g id="Layer_1-2"><g><circle class="cls-4" cx="329" cy="329" r="329"/><g><path class="cls-2" d="M364.3,258.94c-11.56,.69-22.97,.31-33.42-5.48-4.23-2.35-6.24-1.81-6.05,3.42,.45,12.96,.85,25.93,4.87,38.42,1.29,4,2.62,8.28,6.17,10.87,15.31,11.19,18.24,27.68,19.49,44.83,.57,7.86,.77,15.77,.69,23.65-.09,9.41-6.13,15.4-15.23,15.7-9.19,.31-16.6-5.82-17.37-14.9-.69-8.14-.99-16.3-3.16-24.25-1.27-4.64-2.82-9.17-5.41-13.26-3.28-5.19-7.27-9.85-14.07-9.15-6.87,.71-10.33,6.17-11.63,12.01-3.75,16.95-12.25,32.03-18.19,48.1-1.92,5.21-3.97,10.79-9.8,13.13-6.89,2.76-13.34,1.75-18.87-3.34-5.8-5.33-6.18-12-3.32-18.65,8.98-20.91,13.2-43.05,16.89-65.24,3.42-20.53,6.65-41.19,4.27-62.16-.59-5.21-1.01-12.63-6.58-12.86-4.28-.18-4.59,7.56-5.11,12.04-1.1,9.49-1.4,19.08-1.99,28.63-.51,8.26-4.18,12.67-10.76,12.23-7.43-.49-11.34-4.85-11.22-12.18,.19-10.98,.58-21.96,1.29-32.92,1-15.42,12.58-23.12,23.58-31.12,7.29-5.31,14.89-10.22,21.93-15.83,6.5-5.18,13.94-3.3,21.1-4.13,11.69-1.35,20.85,2.33,27.57,12.05,1.11,1.6,2.87,2.75,4.03,4.33,11.68,16.03,27.54,22.53,47.11,20.92,3.65-.3,7.34-.09,11.01,.05,6.86,.26,10.15,4.39,10.74,10.74,.62,6.73-1.98,11.87-9.14,12.93-6.4,.94-12.94,.98-19.41,1.42Z"/><path class="cls-3" d="M433.32,433.44c0,27.6-.23,55.21,.17,82.81,.09,6.22-1.96,7.82-7.63,7.73-12.99-.2-25.99-.28-38.97,.15-7.3,.24-6.53-4.39-6.53-8.9-.01-36.05-.02-72.11-.01-108.16,0-19.72,.17-39.44-.06-59.15-.07-5.72,1.62-8.01,7.71-7.82,12.41,.39,24.86,.37,37.27-.11,6.33-.24,8.25,1.76,8.19,8.1-.31,28.45-.13,56.9-.13,85.34Z"/><path class="cls-3" d="M359.51,462.22c0,18.32-.14,36.65,.09,54.97,.06,5.06-1.4,7-6.71,6.86-13.28-.34-26.57-.32-39.85-.13-5.08,.07-6.9-1.64-6.89-6.85,.12-36.36,.03-72.72-.14-109.09-.02-4.79,1.82-6.39,6.52-6.32,13.28,.19,26.57,.25,39.85-.07,5.62-.14,7.29,1.9,7.2,7.36-.28,17.75-.1,35.52-.1,53.27h.03Z"/><path class="cls-3" d="M283.18,473.2c0,14.34-.16,28.69,.08,43.03,.09,5.11-1.02,7.82-6.91,7.69-13.25-.29-26.51-.19-39.76,0-4.68,.06-6.55-1.7-6.53-6.4,.12-29.25,.15-58.5,.03-87.75-.02-5.18,2.03-6.81,7.05-6.71,12.69,.24,25.39,.33,38.06-.07,6.17-.19,8.41,1.52,8.18,8.03-.5,14.04-.15,28.12-.15,42.18h-.05Z"/><path class="cls-1" d="M291.46,133.86c16.14-.04,28.18,12.08,28.14,28.35-.04,15.88-11.94,27.72-27.88,27.75-16.29,.03-28.27-12.02-28.23-28.37,.04-15.67,12.16-27.68,27.96-27.72Z"/></g></g></g></svg>