<?xml version="1.0" encoding="UTF-8"?><svg id="Layer_2" xmlns="http://www.w3.org/2000/svg" viewBox="0 0 658 658"><defs><style>.cls-1{fill:#87c552;}.cls-2{fill:#b7d097;}.cls-3{fill:#95ca69;}.cls-4{fill:#fdfefd;}.cls-5{fill:#9dcd74;}.cls-6{fill:#a2cb79;}.cls-7{fill:#1e75bc;}.cls-8{fill:#fefefe;}</style></defs><g id="Layer_1-2"><g><circle class="cls-7" cx="329" cy="329" r="329"/><g><path class="cls-4" d="M242.17,357.01c24.88,3.98,48.25,11.11,66.44,30.06,4.01,4.18,4.59,7.08,1.24,12.18-18.65,28.35-48.96,37.65-81.41,24.69-18.75-7.49-35.63-18.13-51.3-30.65-23.97-19.15-46.14-40.24-67.88-64.44,8.68,2.44,15.48,4.97,22.5,6.2,16.15,2.82,30.63-2.2,44-10.96,9.18-6.02,18.28-12.17,27.28-18.45,25.85-18.06,63.74-19.26,89.53-2.73,20.32,13.03,29.06,32.17,29.82,55.82,1.71-8.48,3.39-16.97,5.13-25.45,1.82-8.83,4.6-17.41,6.91-26.1,1.85-6.98,6.38-6.35,10.93-5.69,6.17,.9,2.84,5.68,2.4,8.62-2.36,15.76-5.4,31.43-6.24,49.91,7.63-11.26,15.28-19.37,25.49-24.21,32.24-15.28,62.39-10.85,90.32,10.6,10.27,7.89,19.98,16.47,30.63,23.89,16.53,11.51,34.23,13.39,53.13,7.56,1.84-.57,3.74-.94,7.66-1.91-13.03,12.64-25.38,23-38.04,33.03-25.45,20.16-51.53,39.27-82.6,50.2-36.2,12.74-66.87,5.18-86.27-30.46-.25-.46-.81-.74-2.39-2.12-.15,12.28,1.34,23.43,3.01,34.49,4.98,33.01,14.4,64.8,27.48,95.48,2.47,5.79,2.42,8.15-4.91,7.33-12.86-1.45-25.78-2.41-38.7-3.27-4.31-.29-5.84-2.08-6.04-6.24-2.59-54.32-5.87-108.66-.57-162.98,.99-10.13-.77-16.48-10.87-21.02-16.5-7.42-32.5-15.69-51.29-14.94-8.86-2.2-17.83-.18-26.75-.44-15.44-.45-30.89-1.75-46.35-1.04-4.9,.22-9.39-1.69-14.15-1.85-4.08-1.5-8.66-1.52-14.04-5.11,4.17,3.32,7.56,3.23,10.59,4.2,19.69,4.54,39.75,2.5,59.62,3.53,5.32,.28,10.7-.18,15.69,2.27Z"/><path class="cls-8" d="M353.69,223.61c-14.15,22.58-17.59,47.68-16.44,73.83-37.88-7.51-59.72-46.26-48.32-83.47,8.78-28.68,28.75-46.18,55.18-57.92,7.96-3.54,15.6-7.85,23.16-12.21,17.41-10.05,26.27-25.7,28.94-45.26,.21-1.57-.4-3.42,1.23-4.63,.49,.12,1.3,.13,1.38,.37,13.79,41.85,25.38,84.19,25.49,128.69,.04,16.71-2.39,33.11-11.12,48.01-12.26,20.92-31.95,28.02-54.56,30.09-5.3,.49-5.8-3.3-6.83-6.75-6.36-21.35-3.91-42.35,2.56-63.18,.41-1.33,.77-2.69,1.15-4.03,1.11-8.82,5.88-16.16,9.75-23.82,8.73-17.28,19.28-33.68,24.93-52.44,.87-2.9,1.54-5.85,1.88-8.92-4.06,22.24-16.3,40.92-26.57,60.41-3.77,7.14-5.63,15.42-11.8,21.24Z"/><path class="cls-6" d="M353.69,223.61c6.77-13.54,13.48-27.11,20.31-40.61,6.94-13.72,13.72-27.5,18.02-44.55,1.66,12.18-2.37,20.89-6.4,29.45-9.43,20.05-21.6,38.73-30.13,59.25-.6-1.18-1.2-2.36-1.81-3.54Z"/><path class="cls-3" d="M242.17,357.01c-20.16-2.08-40.42-.68-60.61-1.55-5.95-.26-11.68-1.49-17.32-3.28-.2-3.27,1.7-2.48,3.53-1.82,27.42,2.71,54.93,3.22,82.45,3.71,2.48,.04,5.1-.17,7.34,1.36-5.06,1.2-10.52-1.49-15.39,1.57Z"/><path class="cls-8" d="M209.94,365.75c11.83,0,23.65,0,35.48,0,2.8,0,6.25-.63,7.78,2.12,5.42,9.78,15.4,11.65,24.65,14.54,7.26,2.27,11.85,7.52,16.06,13.06,4.13,5.44,2.17,9.46-4.59,9-9.47-.65-15.34,5.06-20.86,10.8-3.08,3.2-5.2,5.74-9.73,3.69-1.99-.9-3.78-.21-5.7,.34-6.63,1.9-11.26,.69-12.86-7.21-1.54-7.64-7.64-8.45-13.88-6.88-3.94,.98-7.76,1.58-11.62,.71-3.58-.8-6.93-1.87-6.59-7.02,.34-5.1-2.82-7.55-7.87-7.83-3.16-.18-6.6-.85-7.03-4.67-.51-4.53-.18-9.69-5.01-11.68-6.14-2.53-12.52-5.37-19.56-3.4-.81,.23-1.58,.61-2.4,.8-1.97,.45-3.38-.39-3.88-2.25-.79-2.91,1.63-2.14,3.06-2.45,4.66-1.02,9.28-1.85,14.13-1.74,10.13,.24,20.27,.07,30.41,.07Z"/><path class="cls-8" d="M193.64,341.73c-4.21,0-8.44,.23-12.62-.11-1.77-.14-4.2-.9-4.16-3.38,.03-1.85,1.82-2.92,3.44-3.26,5.91-1.23,11.5-3.97,17.99-2.25,8.79,2.33,11.39-.46,8.35-8.71-1.43-3.87-1.55-5.58,3.29-5.73,7.64-.23,13.74-3.02,15.2-11.57,.31-1.83,.96-3.33,3.01-3.42,8.1-.34,16.16-3.39,24.21-1.61,6.44,1.43,12.8,1.56,19.23,1.39,5.23-.13,7.93,1.66,7.74,7.27-.19,5.33,3.04,7.69,8.02,7.22,6.79-.64,9.12,2.67,8.86,8.87-.08,1.96-.29,4.01,.14,5.89,.81,3.57,1.03,7.29,6.94,4.13,6.2-3.32,8.94-.9,7.5,6.19-.62,3.05,.63,5.47,.61,8.21-.02,2.66-.25,5.26-3.35,6.02-2.69,.66-4.08-1-4.97-3.38-3.78-10.05-10.16-12.91-21.46-11.98-15.07,1.25-30.46,.35-45.74-.82-13.99-1.08-28.13-.23-42.21-.23v1.25Z"/><path class="cls-1" d="M402.78,394.39c-23.2,3.27-44.85,10.14-62.13,27.16-4.9-11.05-2.87-15.76,6.49-20.57,24.74-12.71,51.07-11.26,77.5-9.65-.42,3.62-3.27,2.07-5.13,2.26-5.56,.56-11.21-.85-16.73,.8Z"/><path class="cls-5" d="M402.78,394.39c6.85-4.1,14.95,.68,21.86-3.06,16.25,.52,32.5,1.15,48.75,1.51,8.65,.19,17.33,.4,28.19-2.33-6.53,4.91-11.72,5.75-17.18,5.89-13.77,.36-27.47-.31-41.21-1.33-13.41-.99-26.93-.52-40.4-.69Z"/><path class="cls-2" d="M167.77,350.37c-1.33,.31-2.8,.35-3.53,1.82-3.42-.35-6.48-1.45-9.34-4.67,4.98-.29,9.03,.77,12.87,2.85Z"/></g></g></g></svg>