<svg xmlns="http://www.w3.org/2000/svg" width="96" height="60" viewBox="0 0 96 60">
  <g id="mastercard" transform="translate(0.412 0.439)">
    <rect id="Rectangle_44" data-name="Rectangle 44" width="96" height="60" rx="5" transform="translate(-0.412 -0.44)" fill="#f8f8f8"/>
    <g id="mastercard-svgrepo-com_1_" data-name="mastercard-svgrepo-com (1)" transform="translate(22.371 10.314)">
      <path id="Path_21" data-name="Path 21" d="M19.575,174.4v-2.6a1.524,1.524,0,0,0-1.645-1.645,1.708,1.708,0,0,0-1.472.736,1.514,1.514,0,0,0-1.385-.736,1.4,1.4,0,0,0-1.212.606v-.519h-.909V174.4h.909V172.1c0-.736.39-1.082,1-1.082s.909.39.909,1.082V174.4h.909V172.1a.958.958,0,0,1,1-1.082c.606,0,.909.39.909,1.082V174.4Zm13.463-4.156H31.566v-1.255h-.909v1.255h-.823v.822h.823v1.9c0,.952.389,1.515,1.428,1.515a2.422,2.422,0,0,0,1.126-.3l-.26-.779a1.424,1.424,0,0,1-.779.217c-.433,0-.606-.26-.606-.693v-1.861h1.472v-.822Zm7.706-.087a1.22,1.22,0,0,0-1.082.606v-.519h-.909V174.4h.909v-2.338c0-.693.3-1.082.866-1.082a2.529,2.529,0,0,1,.563.087l.26-.866a2.864,2.864,0,0,0-.606-.043Zm-11.645.433a2.971,2.971,0,0,0-1.688-.433c-1.039,0-1.732.519-1.732,1.342,0,.693.519,1.082,1.429,1.212l.433.043c.476.087.736.217.736.433,0,.3-.346.519-.952.519a2.391,2.391,0,0,1-1.385-.433l-.433.693a3.062,3.062,0,0,0,1.775.519c1.212,0,1.9-.563,1.9-1.342,0-.736-.563-1.126-1.429-1.255l-.433-.043c-.39-.043-.693-.13-.693-.389,0-.3.3-.476.779-.476a3.119,3.119,0,0,1,1.3.346l.39-.736Zm24.155-.433a1.22,1.22,0,0,0-1.082.606v-.519h-.909V174.4h.909v-2.338c0-.693.3-1.082.866-1.082a2.528,2.528,0,0,1,.563.087l.26-.866a2.864,2.864,0,0,0-.606-.043Zm-11.6,2.164a2.079,2.079,0,0,0,2.208,2.164,2.154,2.154,0,0,0,1.472-.476l-.433-.736a1.749,1.749,0,0,1-1.082.389,1.229,1.229,0,0,1-1.255-1.342,1.277,1.277,0,0,1,1.255-1.342,1.748,1.748,0,0,1,1.082.39l.433-.736a2.153,2.153,0,0,0-1.472-.476,2.079,2.079,0,0,0-2.208,2.164Zm8.4,0V170.24h-.909v.519a1.564,1.564,0,0,0-1.3-.606,2.166,2.166,0,0,0,0,4.329,1.457,1.457,0,0,0,1.3-.606v.519h.909Zm-3.333,0a1.258,1.258,0,1,1,2.511,0,1.258,1.258,0,1,1-2.511,0Zm-10.865-2.164a2.166,2.166,0,0,0,.043,4.329,2.649,2.649,0,0,0,1.688-.563l-.433-.649a2.068,2.068,0,0,1-1.212.433,1.168,1.168,0,0,1-1.256-1h3.074v-.346a1.912,1.912,0,0,0-1.9-2.208Zm0,.779a1.013,1.013,0,0,1,1.039,1H34.726a1.1,1.1,0,0,1,1.126-1Zm22.553,1.385V168.6H57.5v2.164a1.564,1.564,0,0,0-1.3-.606,2.166,2.166,0,0,0,0,4.329,1.457,1.457,0,0,0,1.3-.606v.519h.909Zm-3.333,0a1.258,1.258,0,1,1,2.511,0,1.258,1.258,0,1,1-2.511,0Zm-30.389,0V170.24h-.909v.519a1.564,1.564,0,0,0-1.3-.606,2.166,2.166,0,0,0,0,4.329,1.457,1.457,0,0,0,1.3-.606v.519h.909Zm-3.377,0a1.258,1.258,0,1,1,2.511,0,1.258,1.258,0,1,1-2.511,0Z" transform="translate(-10.398 -135.349)"/>
      <rect id="Rectangle_45" data-name="Rectangle 45" width="13.636" height="24.501" transform="translate(18.398 3.333)" fill="#ff5f00"/>
      <path id="Path_22" data-name="Path 22" d="M19.263,15.584a15.625,15.625,0,0,1,5.93-12.251,15.578,15.578,0,1,0-9.61,27.835,15.487,15.487,0,0,0,9.61-3.333A15.561,15.561,0,0,1,19.263,15.584Z" transform="translate(0 0)" fill="#eb001b"/>
      <path id="Path_23" data-name="Path 23" d="M153.177,15.584a15.567,15.567,0,0,1-25.194,12.251,15.618,15.618,0,0,0,0-24.5,15.567,15.567,0,0,1,25.194,12.251Z" transform="translate(-102.746 0)" fill="#f79e1b"/>
    </g>
  </g>
</svg>
