<svg xmlns="http://www.w3.org/2000/svg" xmlns:xlink="http://www.w3.org/1999/xlink" width="95" height="60" viewBox="0 0 95 60">
  <defs>
    <clipPath id="clip-path">
      <rect id="Rectangle_164055" data-name="Rectangle 164055" width="66.058" height="27.465" fill="none"/>
    </clipPath>
  </defs>
  <g id="stripe-purple-300x300" transform="translate(-1171.814 -1316.5)">
    <rect id="stripe-purple-300x300-2" data-name="stripe-purple-300x300" width="95" height="60" rx="5" transform="translate(1171.814 1316.5)" fill="#fff"/>
    <g id="stripe-purple-300x300-3" data-name="stripe-purple-300x300" transform="translate(1186.285 1332.768)">
      <g id="Group_150475" data-name="Group 150475" clip-path="url(#clip-path)">
        <path id="Path_52477" data-name="Path 52477" d="M563.27,101.752c0,1.428,0,2.847,0,4.266,0,.871-.005.86-.876,1.037-1.115.227-2.226.474-3.339.711-.117.025-.236.045-.374.072V86.471a2.1,2.1,0,0,1,.228-.025c1.174,0,2.348,0,3.521-.006.226,0,.311.064.336.291a7.506,7.506,0,0,0,.176.807.979.979,0,0,0,.155-.088,5.362,5.362,0,0,1,7.6.62,8.422,8.422,0,0,1,1.974,4.5,12.734,12.734,0,0,1-.264,5.12,6.5,6.5,0,0,1-3.2,4.464,5.187,5.187,0,0,1-5.615-.262c-.074-.05-.15-.1-.225-.144-.008,0-.021,0-.093,0m4.992-7.22a5.457,5.457,0,0,0-.96-3.319,2.612,2.612,0,0,0-3.828-.291.711.711,0,0,0-.2.457q-.013,3.153.013,6.307a.678.678,0,0,0,.207.449,2.618,2.618,0,0,0,4.074-.7,5.657,5.657,0,0,0,.692-2.9" transform="translate(-521.197 -80.372)" fill="#635bff"/>
        <path id="Path_52478" data-name="Path 52478" d="M794.861,96.158h-8.976a2.7,2.7,0,0,0,2.308,2.672,9.345,9.345,0,0,0,5.365-.719l.334-.145c.007.113.016.2.016.28,0,1.028-.008,2.057.007,3.085a.412.412,0,0,1-.27.432,10.753,10.753,0,0,1-5.7,1,6.839,6.839,0,0,1-6.481-5.881,10.654,10.654,0,0,1,.97-7.319,6.491,6.491,0,0,1,6.781-3.364,6.024,6.024,0,0,1,4.887,4.036,11.132,11.132,0,0,1,.762,4.359c0,.5,0,1,0,1.563m-4.322-3.382a2.828,2.828,0,0,0-1.3-2.659,2.091,2.091,0,0,0-2.392.2,2.907,2.907,0,0,0-1.051,2.46Z" transform="translate(-728.804 -80.346)" fill="#635bff"/>
        <path id="Path_52479" data-name="Path 52479" d="M10.754,91.045c-.96-.3-1.885-.62-2.831-.859a5.577,5.577,0,0,0-2.392-.131.942.942,0,0,0-.869.72.908.908,0,0,0,.578,1.063c.672.322,1.376.58,2.077.835a9.751,9.751,0,0,1,2.638,1.286,4.129,4.129,0,0,1,1.679,3.18c.195,3.092-1.806,4.8-4.242,5.333a11.715,11.715,0,0,1-6.926-.705.425.425,0,0,1-.243-.289c-.015-1.341-.01-2.683-.008-4.025a.344.344,0,0,1,.027-.091c.6.254,1.183.532,1.788.752a8.306,8.306,0,0,0,3.8.607c.822-.092,1.267-.613,1.1-1.312a1.214,1.214,0,0,0-.748-.811c-.658-.3-1.344-.542-2.007-.834A19.48,19.48,0,0,1,1.946,94.71,3.978,3.978,0,0,1,.051,90.456a4.863,4.863,0,0,1,4.065-4.208,11.268,11.268,0,0,1,6.42.532.375.375,0,0,1,.21.267c.013,1.352.009,2.7.009,4" transform="translate(0 -80.23)" fill="#635bff"/>
        <path id="Path_52480" data-name="Path 52480" d="M195.1,39.4h-3.461v.385q0,2.952,0,5.9c0,.145,0,.291.017.436a1.723,1.723,0,0,0,2.115,1.716c.441-.054.876-.157,1.353-.244v1.2c0,.738.008,1.476-.008,2.214,0,.117-.086.306-.175.337-1.922.659-3.849.893-5.679-.243a4.206,4.206,0,0,1-2.071-3.7c-.031-4.909-.008-9.818-.005-14.727,0-.066.011-.132.019-.222l4.443-.949v3.972H195.1Z" transform="translate(-174.622 -29.387)" fill="#635bff"/>
        <path id="Path_52481" data-name="Path 52481" d="M331.891,89.648a2.847,2.847,0,0,1,2.433-1.52,6.484,6.484,0,0,1,1.194.121.269.269,0,0,1,.17.2c.01,1.34.008,2.68.008,4-.466-.024-.906-.081-1.344-.062a2.642,2.642,0,0,0-1.907.852.905.905,0,0,0-.224.554c-.013,3.366-.01,6.732-.01,10.1v.451h-4.56V88.3h.782c.962,0,1.923.006,2.885,0,.224,0,.313.067.345.292.047.328.137.649.228,1.058" transform="translate(-305.667 -82.213)" fill="#635bff"/>
        <rect id="Rectangle_164054" data-name="Rectangle 164054" width="4.565" height="16.019" transform="translate(31.182 6.114)" fill="#635bff"/>
        <path id="Path_52482" data-name="Path 52482" d="M468.961,3.708l-4.58.986c-.007-.143-.017-.249-.017-.355q0-1.558,0-3.117c0-.146-.02-.273.194-.316,1.42-.288,2.838-.592,4.256-.89.042-.009.085-.01.148-.017Z" transform="translate(-433.206)" fill="#635bff"/>
      </g>
    </g>
  </g>
</svg>
