<svg xmlns="http://www.w3.org/2000/svg" width="95" height="60" viewBox="0 0 95 60">
  <g id="visa-svgrepo-com" transform="translate(-0.133 0.439)">
    <rect id="Rectangle_43" data-name="Rectangle 43" width="95" height="60" rx="5" transform="translate(0.133 -0.439)" fill="#0e4595"/>
    <path id="Path_13" data-name="Path 13" d="M137.362,172.855l3.989-23.408h6.381l-3.992,23.408Zm29.429-22.9a16.478,16.478,0,0,0-5.718-.983c-6.3,0-10.746,3.175-10.783,7.725-.036,3.364,3.17,5.24,5.59,6.36,2.484,1.147,3.318,1.879,3.307,2.9-.016,1.569-1.983,2.286-3.817,2.286a13.376,13.376,0,0,1-6.006-1.229l-.822-.372-.9,5.24a20.2,20.2,0,0,0,7.107,1.249c6.707,0,11.061-3.138,11.111-8,.024-2.663-1.676-4.689-5.357-6.36-2.23-1.083-3.6-1.805-3.581-2.9,0-.973,1.156-2.014,3.654-2.014a11.775,11.775,0,0,1,4.776.9l.572.27.865-5.074m16.419-.5h-4.93a3.175,3.175,0,0,0-3.341,1.941l-9.476,21.452h6.7s1.1-2.885,1.343-3.518c.732,0,7.241.01,8.172.01.191.819.776,3.508.776,3.508h5.921l-5.164-23.394Zm-7.822,15.116c.528-1.349,2.542-6.544,2.542-6.544-.038.062.524-1.355.846-2.234l.431,2.018s1.222,5.588,1.477,6.759Zm-43.442-15.116L125.7,165.41l-.666-3.244c-1.163-3.74-4.786-7.791-8.836-9.819l5.712,20.472,6.751-.008L138.7,149.446h-6.759" transform="translate(-101.351 -131.169)" fill="#fff"/>
    <path id="Path_14" data-name="Path 14" d="M70.568,152.956H60.279l-.081.487c8,1.938,13.3,6.62,15.5,12.246L73.46,154.932c-.386-1.482-1.506-1.924-2.892-1.976" transform="translate(-52.048 -134.68)" fill="#f2ae14"/>
  </g>
</svg>
